<svg width="1440" height="1024" viewBox="0 0 1440 1024" fill="none" xmlns="http://www.w3.org/2000/svg">
<g clip-path="url(#clip0_483_681)">
<path opacity="0.73" d="M108.999 159L120.497 165L113.5 183.5L101 170.5L108.999 159Z" fill="#A72CE0"/>
<path opacity="0.93" d="M261.998 139L277.711 123.466L286.5 136L268.533 151.711L261.998 139Z" fill="#E02C87"/>
<path opacity="0.81" d="M422 67.5L432.999 55L437.789 58.1138L438.499 65L432.499 67.5L422 67.5Z" fill="#E02C2C"/>
<path opacity="0.78" d="M576 129L588.612 108.816L601 113L601 131L586.5 134.5L576 129Z" fill="#2CE02C"/>
<path opacity="0.95" d="M834.002 59.0002L824.501 51.4998L836.836 38.8334L844.002 44.0002L834.002 59.0002Z" fill="#E0A12C"/>
<path opacity="0.73" d="M1062.5 156L1082.36 170.218L1073.5 183.5L1062.5 178.5L1054.78 165.357L1062.5 156Z" fill="#A72CE0"/>
<path opacity="0.9" d="M1088 39.9994L1071.92 27.4397L1084.48 11.3642L1109.5 24.0001L1101.5 33.5002L1088 39.9994Z" fill="#2CE02C"/>
<path opacity="0.72" d="M1275 155L1268.44 139.535L1275 129L1290.46 139.535L1290.46 148.436L1275 155Z" fill="#E0DA2C"/>
<path opacity="0.98" d="M52.0011 247.667L42.889 256.777L31 251.5L31 238L42.889 235L52.0011 247.667Z" fill="#382CE0"/>
<path opacity="0.96" d="M237.499 184.5L248.018 188.408L240 199.5L224 192.5L237.499 184.5Z" fill="#382CE0"/>
<path opacity="0.75" d="M355.802 223.001L367 223L362.244 247.042L351.5 243.5L355.802 223.001Z" fill="#E0A12C"/>
<path opacity="0.9" d="M574.498 178.117L575.995 190.529L569 188.5L564.421 178.117L574.498 178.117Z" fill="#E02C87"/>
<path opacity="0.96" d="M714.285 84.7207L697 72L694.001 64L699.436 59.0011L710.5 62L714.285 84.7207Z" fill="#E0A12C"/>
<path opacity="0.95" d="M886.001 238L861.002 233.331L869.207 214L884 214L886.001 238Z" fill="#E0A12C"/>
<path opacity="0.97" d="M1172 318.667L1187 318.667L1196.98 333.091L1177.28 338.371L1172 318.667Z" fill="#A72CE0"/>
<path opacity="0.99" d="M1340 336.739L1338 329L1356.86 325.884L1363.64 336.739L1352.78 343.522L1340 336.739Z" fill="#E0DA2C"/>
<path opacity="0.75" d="M98.5012 440.5L91.4998 458.5L78.5478 449.888L86.4998 440.5L98.5012 440.5Z" fill="#382CE0"/>
<path opacity="0.9" d="M239.534 446.868L243.501 451.5L229.189 457.215L235.654 446.869L239.534 446.868Z" fill="#E02C87"/>
<path opacity="0.88" d="M404.801 264.667L415.5 270L417.128 288.861L408.5 283L404.801 264.667Z" fill="#A72CE0"/>
<path opacity="0.91" d="M1397 55.7759L1405.47 46.9999L1415 51.5L1405.78 64.2507L1397 55.7759Z" fill="#A72CE0"/>
<path opacity="0.91" d="M1080 433.883L1093 426.5L1103.4 453.518L1087.5 453.518L1080 433.883Z" fill="#382CE0"/>
<path opacity="0.89" d="M936.998 143.353L954.5 126L970.07 135.718L949.716 153L936.998 143.353Z" fill="#E02C2C"/>
<path opacity="0.76" d="M1215 346.333L1225.46 340.05L1231.74 350.507L1221 363.5L1215 346.333Z" fill="#E02C2C"/>
<path opacity="0.97" d="M1353 491.333L1358 480.5L1366.64 475.083L1367.94 490.026L1353 491.333Z" fill="#E02C2C"/>
<path opacity="0.7" d="M37 552.5L45.37 539.066L54.5 552.5L47.9337 568.37L37 552.5Z" fill="#E02C2C"/>
<path opacity="0.73" d="M299 535L296.442 526.435L305 529.5L306.565 541.442L299 535Z" fill="#E02C87"/>
<path opacity="0.72" d="M408 813L416.501 803.5L422.002 813L422.002 831L412 831L404.437 823.5L408 813Z" fill="#E0DA2C"/>
<path opacity="0.72" d="M314.502 774.5L336.451 784.654L323.5 792L309.002 780.796L314.502 774.5Z" fill="#2CE02C"/>
<path opacity="0.88" d="M1156.73 638.963L1154 616.73L1169.5 616.73L1178 628L1156.73 638.963Z" fill="#A72CE0"/>
<path opacity="0.82" d="M1328 817.564L1345.88 817.564L1350 834.317L1325.5 840.5L1318 834.317L1328 817.564Z" fill="#E0DA2C"/>
<path opacity="0.84" d="M1221.5 655.5L1226.69 681.997L1208.69 681.683L1213 670L1221.5 655.5Z" fill="#E02C87"/>
<path opacity="0.84" d="M1396 656V638.8L1407.5 638.8L1413.2 656H1396Z" fill="#382CE0"/>
<path opacity="0.96" d="M11 774.667L20.8673 786.5L13.5 796.5L2.37883 793.155L11 774.667Z" fill="#E02C2C"/>
<path d="M239 796.667L244 804.836L244 820.5L226.42 804.836L239 796.667Z" fill="#E0A12C"/>
<path opacity="0.96" d="M98.9983 651L114.498 649.5L114.498 659L106.5 668L95.4971 659L98.9983 651Z" fill="#A72CE0"/>
<path opacity="0.98" d="M681.999 818L706.95 821.118L706.95 837L682 833.831L681.999 818Z" fill="#382CE0"/>
<path opacity="0.84" d="M874.883 843L878.165 859.884L861.278 863.167L861.281 851.5L874.883 843Z" fill="#E02C2C"/>
<path opacity="0.87" d="M1016 823.667L1028 838.135L996.801 838.135L1001 829L1016 823.667Z" fill="#A72CE0"/>
<path opacity="0.77" d="M1132.5 764.5L1117.98 785.265L1105.39 770.251L1120.4 757.651L1132.5 764.5Z" fill="#2CE02C"/>
<rect opacity="0.85" x="1432" y="688.667" width="19.6" height="19.6" transform="rotate(4 1432 688.667)" fill="#E0DA2C"/>
<path opacity="0.86" d="M142 860.333L156.032 874.864L142 881L138.5 874.864L142 860.333Z" fill="#382CE0"/>
<path opacity="0.91" d="M267.313 965L273.5 950L290.882 972.59L267.313 975.902L267.313 965Z" fill="#E02C2C"/>
<path opacity="0.75" d="M533 902.333L519.685 906.66L519.685 900L528.674 889.019L533 902.333Z" fill="#2CE02C"/>
<path opacity="0.76" d="M571 893.333L575.795 877.65L586.683 877.65L592 882.5L586.683 891.5L571 893.333Z" fill="#E0DA2C"/>
<path opacity="0.81" d="M731 879.334L720.586 870.281L723.5 861L740.054 868.919L731 879.334Z" fill="#A72CE0"/>
<path opacity="0.71" d="M958 932.333L973.498 932.334L964 951L942.934 946.382L958 932.333Z" fill="#382CE0"/>
<path opacity="0.81" d="M1184 965.333L1163.97 961.441L1176.5 931.5L1187.89 945.308L1184 965.333Z" fill="#E02C2C"/>
<path d="M1428 926.5L1442.59 931.937L1444.99 945.527L1431.39 947.923L1428 926.5Z" fill="#2CE02C"/>
</g>
<defs>
<clipPath id="clip0_483_681">
<rect width="1440" height="1024" fill="white"/>
</clipPath>
</defs>
</svg>
