<svg width="1440" height="1024" viewBox="0 0 1440 1024" fill="none" xmlns="http://www.w3.org/2000/svg">
<path opacity="0.77" d="M57.4979 50.5002L48.4979 62.5L26.4412 59.7616L40.8399 42.6019L56.0001 44.0001L57.4979 50.5002Z" fill="#E0A12C"/>
<path opacity="0.94" d="M320.998 97.5003L307.912 116.065L307.912 101.5L313.935 91.9137L320.998 97.5003Z" fill="#2CE02C"/>
<path opacity="0.76" d="M406.05 44L388.007 52.9508L385.057 31.957L406.05 29.0066L406.05 44Z" fill="#E02C87"/>
<path opacity="0.78" d="M662.9 56.2676L666.001 66.9872L662.9 73L637.643 66.9866L648 52L662.9 56.2676Z" fill="#382CE0"/>
<path opacity="0.85" d="M852 33L865.712 43L865.712 57.738L852 50L852 33Z" fill="#E0DA2C"/>
<path opacity="0.96" d="M964.998 130L962 140.638L942.183 140.638L945.498 128.5L964.998 130Z" fill="#E0DA2C"/>
<path opacity="0.72" d="M1257 156L1239.75 143.001L1252.75 125.751L1268.5 133.5L1257 156Z" fill="#E0A12C"/>
<path opacity="0.96" d="M1422.5 53.8021L1425.8 61.51L1413.5 66.5L1408.49 53.8023L1422.5 53.8021Z" fill="#E0DA2C"/>
<path opacity="0.89" d="M153 308.666L142.483 317.5L122.705 299.404L127.5 291L142.483 288.888L153 308.666Z" fill="#2CE02C"/>
<path opacity="0.71" d="M213 327.667L228 329.5L234.319 339.5L214.865 348.985L213 327.667Z" fill="#A72CE0"/>
<path opacity="0.78" d="M146 44.959L153.5 39.9998L167.109 58.1487L152 58.1487L146 44.959Z" fill="#2CE02C"/>
<path opacity="0.74" d="M647.898 126.934L655 136L653 142.498L637 142.497L647.898 126.934Z" fill="#E02C2C"/>
<path opacity="0.72" d="M796.898 181.934L787.784 167.348L796.898 158.5L811.5 167.348L796.898 181.934Z" fill="#2CE02C"/>
<path opacity="0.94" d="M1175 117.068L1189 108L1195.37 116L1197.5 131L1179 137L1175 117.068Z" fill="#E0DA2C"/>
<path opacity="0.86" d="M1175 238.667L1190.78 251.908L1173 267.5L1161.76 254.447L1175 238.667Z" fill="#A72CE0"/>
<path opacity="0.9" d="M1401.5 314L1419 325L1408.5 329.412L1398.25 321.067L1401.5 314Z" fill="#2CE02C"/>
<path opacity="0.95" d="M71.5006 348.5L80.8346 374.119L67 374.119L56.2177 351.164L71.5006 348.5Z" fill="#382CE0"/>
<path opacity="0.91" d="M255 385.333L252.5 396L240.555 399.284L236.5 390.5L255 385.333Z" fill="#2CE02C"/>
<path opacity="0.78" d="M263.969 154.126L244.772 154.461L244.437 135.264L251.469 128.5L263.969 154.126Z" fill="#E02C87"/>
<path opacity="0.87" d="M215.18 669.88L193.3 672.18L190 663.5L202 651L212.88 648L215.18 669.88Z" fill="#2CE02C"/>
<path opacity="0.89" d="M707.203 743L715 748L719.748 757.95L712 752.5L707.203 743Z" fill="#2CE02C"/>
<path opacity="0.87" d="M927.978 791L938.5 787.5L940.972 807.046L931.5 800.5L927.978 791Z" fill="#2CE02C"/>
<path opacity="0.84" d="M1237 398.333L1259.5 389L1257 398.333L1252.5 404.5L1237 398.333Z" fill="#2CE02C"/>
<path opacity="0.7" d="M1391 362.333L1397.5 348.5L1407.97 352.136L1407.97 362.333L1391 362.333Z" fill="#E02C2C"/>
<path opacity="0.87" d="M123.999 606L121.999 599L135.999 596L138.919 613.277L123.999 606Z" fill="#E02C87"/>
<path opacity="0.94" d="M271 548L264.5 555L252.81 552.199L262.5 546L271 548Z" fill="#A72CE0"/>
<path opacity="0.99" d="M91.5 904.764L80.9992 889.954L98 889.954L107.716 904.764L91.5 904.764Z" fill="#A72CE0"/>
<path d="M356 771.5L341 759.67L356 755L368.861 768.189L356 771.5Z" fill="#E0DA2C"/>
<path opacity="0.87" d="M557 801.999L568.502 805.5L568.502 815.856L549 815.856L557 801.999Z" fill="#E0A12C"/>
<path opacity="0.78" d="M918.502 803.5L903.329 816.993L900.002 801.343L911.003 799L918.502 803.5Z" fill="#E02C87"/>
<path opacity="0.99" d="M1164.29 598.5L1173.5 598.5L1164.29 616.488L1153.34 601.953L1164.29 598.5Z" fill="#E0A12C"/>
<path opacity="0.86" d="M1330 558L1321 558L1315.73 540.994L1332.74 526.725L1342.5 537L1330 558Z" fill="#E02C2C"/>
<path opacity="0.99" d="M33 683.667L41 686.5L47 693L43 698.585L28.439 698.585L33 683.667Z" fill="#382CE0"/>
<path opacity="0.81" d="M391.999 832.301L396.5 820L408.999 817L421.767 821.466L417 835L391.999 832.301Z" fill="#382CE0"/>
<path opacity="0.91" d="M419.5 811L435.208 809.592L429.283 826.8L412.075 820.875L419.5 811Z" fill="#2CE02C"/>
<path opacity="0.99" d="M385 875.667L397.279 873.941L392 880.5L386.726 887.946L385 875.667Z" fill="#A72CE0"/>
<path opacity="0.78" d="M574.998 927.361L573 940.5L567.181 942L555.058 927.361L564 920.5L574.998 927.361Z" fill="#382CE0"/>
<path opacity="0.75" d="M1113.87 727.666L1109 721L1113.87 712.5L1122.93 716L1113.87 727.666Z" fill="#E02C2C"/>
<path opacity="0.91" d="M1243.5 696L1226.59 711.697L1217.56 707.5L1226.59 685.5L1235.5 687L1243.5 696Z" fill="#E02C87"/>
<path opacity="0.96" d="M1326 790.667L1311 783L1305.04 770.43L1313.5 763.5L1326 790.667Z" fill="#382CE0"/>
<path opacity="0.85" d="M159 913.5L172.073 913.5L172.073 932.224L153.091 925.315L159 913.5Z" fill="#E02C87"/>
<path opacity="0.73" d="M236 966.332L245.057 974.205L239.5 979L228.127 975.389L236 966.332Z" fill="#E0DA2C"/>
<path opacity="0.88" d="M523.803 1002.5L523.803 1017.99L516.5 1013L518.345 1000.14L523.803 1002.5Z" fill="#382CE0"/>
<path opacity="0.91" d="M680 944L657.583 942.434L666.483 927.018L675.499 931L680 944Z" fill="#A72CE0"/>
<path d="M794 993.333L778.5 999.5L760.245 989.785L780.5 983.5L794 993.333Z" fill="#382CE0"/>
<path opacity="0.81" d="M957.001 941L952.503 953.5L942.501 943L950.902 933.037L957.001 941Z" fill="#E02C2C"/>
<path opacity="0.83" d="M1256 906.333L1241.79 917.045L1231.07 902.83L1246.5 902.83L1256 906.333Z" fill="#E0DA2C"/>
<path opacity="0.78" d="M1413 967.5L1404 980L1387.52 962.822L1409.02 955.839L1413 967.5Z" fill="#E0A12C"/>
</svg>
