<svg width="392" height="84" viewBox="0 0 392 84" fill="none" xmlns="http://www.w3.org/2000/svg">
<path d="M3.6 5.16C4.32 5.21333 5.10667 5.26667 5.96 5.32C6.81333 5.37333 7.57333 5.4 8.24 5.4H28.12C28.6533 5.4 29.2267 5.4 29.84 5.4C30.48 5.37333 30.9733 5.34667 31.32 5.32C31.2933 5.77333 31.2667 6.32 31.24 6.96C31.24 7.57333 31.24 8.14667 31.24 8.68V29.36C31.24 30.0533 31.2533 30.8267 31.28 31.68C31.3333 32.5067 31.3733 33.1467 31.4 33.6H26.84C26.84 33.1467 26.8533 32.5867 26.88 31.92C26.9067 31.2267 26.92 30.52 26.92 29.8V9.44H8.24C7.46667 9.44 6.62667 9.45333 5.72 9.48C4.81333 9.50667 4.10667 9.54667 3.6 9.6V5.16ZM3.12 27.08C3.70667 27.1067 4.41333 27.1467 5.24 27.2C6.06667 27.2533 6.90667 27.28 7.76 27.28H29.28V31.44H7.92C7.12 31.44 6.26667 31.4533 5.36 31.48C4.45333 31.5067 3.70667 31.5467 3.12 31.6V27.08ZM48.44 2.24C49.48 2.37333 50.72 2.57333 52.16 2.84C53.6 3.08 55.1333 3.36 56.76 3.68C58.3867 4 60 4.34667 61.6 4.72C63.2267 5.09333 64.7467 5.48 66.16 5.88C67.5733 6.25333 68.7867 6.61333 69.8 6.96L68.16 10.88C67.2267 10.5067 66.0667 10.1333 64.68 9.76C63.32 9.38667 61.84 9.01333 60.24 8.64C58.6667 8.24 57.0667 7.86667 55.44 7.52C53.84 7.17333 52.3067 6.86667 50.84 6.6C49.4 6.33333 48.1067 6.13333 46.96 6L48.44 2.24ZM46.64 12.92C48.0267 13.16 49.6267 13.4667 51.44 13.84C53.2533 14.1867 55.1333 14.5867 57.08 15.04C59.0267 15.4667 60.8667 15.92 62.6 16.4C64.36 16.8533 65.8667 17.3067 67.12 17.76L65.56 21.64C64.3867 21.2133 62.9467 20.76 61.24 20.28C59.5333 19.7733 57.7067 19.2933 55.76 18.84C53.84 18.3867 51.9467 17.9733 50.08 17.6C48.24 17.2267 46.6 16.9333 45.16 16.72L46.64 12.92ZM44.52 24.48C45.8533 24.6933 47.3733 24.9733 49.08 25.32C50.7867 25.64 52.5467 26.0133 54.36 26.44C56.1733 26.84 57.96 27.2667 59.72 27.72C61.5067 28.1733 63.1733 28.64 64.72 29.12C66.2667 29.5733 67.5867 30.0133 68.68 30.44L66.92 34.36C65.8533 33.9067 64.5467 33.4533 63 33C61.48 32.52 59.8267 32.0533 58.04 31.6C56.2533 31.12 54.44 30.68 52.6 30.28C50.7867 29.8533 49.04 29.48 47.36 29.16C45.7067 28.84 44.2267 28.5867 42.92 28.4L44.52 24.48ZM106.84 13.96C106.787 14.1733 106.733 14.4133 106.68 14.68C106.627 14.9467 106.573 15.1867 106.52 15.4C106.467 15.96 106.36 16.76 106.2 17.8C106.067 18.8133 105.907 19.9333 105.72 21.16C105.533 22.3867 105.347 23.6133 105.16 24.84C104.973 26.04 104.8 27.1467 104.64 28.16C104.507 29.1733 104.387 29.96 104.28 30.52H100C100.08 30.04 100.187 29.3467 100.32 28.44C100.48 27.5067 100.653 26.48 100.84 25.36C101.027 24.24 101.2 23.1067 101.36 21.96C101.52 20.8133 101.653 19.7733 101.76 18.84C101.893 17.88 101.96 17.1467 101.96 16.64C101.507 16.64 100.853 16.64 100 16.64C99.1467 16.64 98.2 16.64 97.16 16.64C96.12 16.64 95.0933 16.64 94.08 16.64C93.0933 16.64 92.24 16.64 91.52 16.64C90.8 16.64 90.32 16.64 90.08 16.64C89.4933 16.64 88.88 16.6533 88.24 16.68C87.6267 16.7067 87.0533 16.7333 86.52 16.76V12.6C86.8667 12.6267 87.24 12.6667 87.64 12.72C88.0667 12.7467 88.4933 12.7733 88.92 12.8C89.3467 12.8 89.72 12.8 90.04 12.8C90.3867 12.8 90.9333 12.8 91.68 12.8C92.4267 12.8 93.2533 12.8 94.16 12.8C95.0933 12.8 96.04 12.8 97 12.8C97.96 12.8 98.8267 12.8 99.6 12.8C100.373 12.8 100.973 12.8 101.4 12.8C101.64 12.8 101.92 12.7867 102.24 12.76C102.56 12.7333 102.867 12.6933 103.16 12.64C103.453 12.5867 103.667 12.5333 103.8 12.48L106.84 13.96ZM82.8 28.96C83.3333 29.0133 83.9067 29.0667 84.52 29.12C85.1333 29.1467 85.76 29.16 86.4 29.16C86.7733 29.16 87.5067 29.16 88.6 29.16C89.6933 29.16 90.9867 29.16 92.48 29.16C94 29.16 95.5733 29.16 97.2 29.16C98.8533 29.16 100.427 29.16 101.92 29.16C103.413 29.16 104.693 29.16 105.76 29.16C106.827 29.16 107.533 29.16 107.88 29.16C108.333 29.16 108.907 29.1467 109.6 29.12C110.293 29.0933 110.88 29.0533 111.36 29V33.08C111.093 33.0533 110.747 33.0267 110.32 33C109.92 33 109.507 33 109.08 33C108.653 33 108.28 33 107.96 33C107.613 33 106.88 33 105.76 33C104.667 33 103.36 33 101.84 33C100.347 33 98.7733 33 97.12 33C95.4667 33 93.88 33 92.36 33C90.8667 33 89.5867 33 88.52 33C87.4533 33 86.7467 33 86.4 33C85.76 33 85.1733 33 84.64 33C84.1067 33.0267 83.4933 33.0533 82.8 33.08V28.96ZM124 6.48C124.667 6.53333 125.373 6.58667 126.12 6.64C126.867 6.66666 127.573 6.68 128.24 6.68C128.72 6.68 129.413 6.68 130.32 6.68C131.253 6.68 132.293 6.68 133.44 6.68C134.587 6.68 135.773 6.68 137 6.68C138.227 6.68 139.387 6.68 140.48 6.68C141.573 6.68 142.533 6.68 143.36 6.68C144.187 6.68 144.773 6.68 145.12 6.68C145.893 6.68 146.64 6.66666 147.36 6.64C148.107 6.58667 148.747 6.53333 149.28 6.48V11.04C148.747 10.9867 148.093 10.96 147.32 10.96C146.547 10.9333 145.813 10.92 145.12 10.92C144.8 10.92 144.213 10.92 143.36 10.92C142.507 10.92 141.493 10.92 140.32 10.92C139.173 10.92 137.973 10.92 136.72 10.92C135.467 10.92 134.253 10.92 133.08 10.92C131.933 10.92 130.933 10.92 130.08 10.92C129.227 10.92 128.627 10.92 128.28 10.92C127.56 10.92 126.827 10.9333 126.08 10.96C125.333 10.96 124.64 10.9867 124 11.04V6.48ZM120.56 26.16C121.307 26.2133 122.067 26.2667 122.84 26.32C123.613 26.3733 124.373 26.4 125.12 26.4C125.467 26.4 126.107 26.4 127.04 26.4C127.973 26.4 129.093 26.4 130.4 26.4C131.733 26.4 133.147 26.4 134.64 26.4C136.16 26.4 137.667 26.4 139.16 26.4C140.653 26.4 142.053 26.4 143.36 26.4C144.693 26.4 145.827 26.4 146.76 26.4C147.693 26.4 148.32 26.4 148.64 26.4C149.28 26.4 149.947 26.3867 150.64 26.36C151.333 26.3067 152 26.24 152.64 26.16V31C152 30.92 151.307 30.8667 150.56 30.84C149.84 30.8133 149.2 30.8 148.64 30.8C148.32 30.8 147.693 30.8 146.76 30.8C145.827 30.8 144.693 30.8 143.36 30.8C142.053 30.8 140.653 30.8 139.16 30.8C137.667 30.8 136.16 30.8 134.64 30.8C133.147 30.8 131.733 30.8 130.4 30.8C129.093 30.8 127.973 30.8 127.04 30.8C126.107 30.8 125.467 30.8 125.12 30.8C124.373 30.8 123.6 30.8267 122.8 30.88C122.027 30.9067 121.28 30.9467 120.56 31V26.16ZM174.12 1.88C173.933 2.36 173.733 2.88 173.52 3.44C173.333 4 173.147 4.49333 172.96 4.92C172.773 5.53333 172.52 6.22667 172.2 7C171.907 7.77333 171.587 8.56 171.24 9.36C170.92 10.1333 170.573 10.88 170.2 11.6C169.667 12.64 169.013 13.7467 168.24 14.92C167.467 16.0667 166.64 17.1733 165.76 18.24C164.907 19.28 164.053 20.1733 163.2 20.92L159.24 18.52C159.96 17.9867 160.653 17.3733 161.32 16.68C162.013 15.96 162.667 15.2133 163.28 14.44C163.893 13.64 164.453 12.8667 164.96 12.12C165.467 11.3733 165.907 10.6933 166.28 10.08C166.813 9.09333 167.267 8.12 167.64 7.16C168.013 6.17333 168.32 5.29333 168.56 4.52C168.747 3.93333 168.893 3.33333 169 2.72C169.133 2.10667 169.213 1.52 169.24 0.959998L174.12 1.88ZM168.56 8.44C168.96 8.44 169.587 8.44 170.44 8.44C171.32 8.44 172.36 8.44 173.56 8.44C174.76 8.44 176.027 8.44 177.36 8.44C178.693 8.44 180.013 8.44 181.32 8.44C182.653 8.44 183.893 8.44 185.04 8.44C186.213 8.44 187.213 8.44 188.04 8.44C188.893 8.44 189.48 8.44 189.8 8.44C190.307 8.44 190.933 8.42667 191.68 8.4C192.427 8.37333 193.107 8.30667 193.72 8.2V12.52C193.053 12.4667 192.347 12.44 191.6 12.44C190.853 12.4133 190.253 12.4 189.8 12.4C189.4 12.4 188.667 12.4 187.6 12.4C186.56 12.4 185.32 12.4 183.88 12.4C182.44 12.4 180.907 12.4 179.28 12.4C177.68 12.4 176.133 12.4 174.64 12.4C173.147 12.4 171.813 12.4 170.64 12.4C169.493 12.4 168.653 12.4 168.12 12.4L168.56 8.44ZM183.64 10.68C183.56 13.6933 183.227 16.44 182.64 18.92C182.053 21.3733 181.24 23.5867 180.2 25.56C179.187 27.5067 177.947 29.2533 176.48 30.8C175.013 32.32 173.347 33.6667 171.48 34.84L167.24 31.96C167.853 31.6933 168.467 31.3867 169.08 31.04C169.72 30.6933 170.267 30.3333 170.72 29.96C171.787 29.1333 172.813 28.16 173.8 27.04C174.813 25.8933 175.72 24.5467 176.52 23C177.347 21.4533 178 19.6667 178.48 17.64C178.987 15.6133 179.267 13.28 179.32 10.64L183.64 10.68ZM200.88 15.16C201.333 15.1867 201.88 15.2267 202.52 15.28C203.187 15.3067 203.893 15.3333 204.64 15.36C205.413 15.3867 206.147 15.4 206.84 15.4C207.373 15.4 208.107 15.4 209.04 15.4C209.973 15.4 211.027 15.4 212.2 15.4C213.4 15.4 214.653 15.4 215.96 15.4C217.267 15.4 218.56 15.4 219.84 15.4C221.147 15.4 222.373 15.4 223.52 15.4C224.667 15.4 225.68 15.4 226.56 15.4C227.44 15.4 228.12 15.4 228.6 15.4C229.56 15.4 230.427 15.3733 231.2 15.32C231.973 15.24 232.6 15.1867 233.08 15.16V20.12C232.627 20.0933 231.987 20.0533 231.16 20C230.333 19.9467 229.48 19.92 228.6 19.92C228.147 19.92 227.467 19.92 226.56 19.92C225.68 19.92 224.667 19.92 223.52 19.92C222.373 19.92 221.147 19.92 219.84 19.92C218.56 19.92 217.267 19.92 215.96 19.92C214.653 19.92 213.4 19.92 212.2 19.92C211.027 19.92 209.973 19.92 209.04 19.92C208.107 19.92 207.373 19.92 206.84 19.92C205.747 19.92 204.653 19.9467 203.56 20C202.467 20.0267 201.573 20.0667 200.88 20.12V15.16ZM248.379 1.84C249.019 2.18667 249.739 2.62667 250.539 3.16C251.339 3.66666 252.165 4.2 253.019 4.76C253.872 5.29333 254.672 5.81333 255.419 6.32C256.192 6.8 256.805 7.21333 257.259 7.56L254.899 11C254.392 10.6267 253.765 10.1867 253.019 9.68C252.272 9.17333 251.485 8.65333 250.659 8.12C249.832 7.58667 249.019 7.08 248.219 6.6C247.419 6.09333 246.712 5.65333 246.099 5.28L248.379 1.84ZM241.779 30.36C243.245 30.0933 244.752 29.76 246.299 29.36C247.845 28.9333 249.379 28.4267 250.899 27.84C252.419 27.2267 253.885 26.5467 255.299 25.8C257.512 24.52 259.579 23.0933 261.499 21.52C263.419 19.9467 265.152 18.2667 266.699 16.48C268.245 14.6933 269.552 12.8533 270.619 10.96L273.059 15.2C271.245 17.92 268.992 20.52 266.299 23C263.632 25.48 260.672 27.6533 257.419 29.52C256.059 30.2933 254.579 31.0133 252.979 31.68C251.405 32.3467 249.832 32.92 248.259 33.4C246.712 33.9067 245.339 34.2667 244.139 34.48L241.779 30.36ZM242.299 10.92C242.939 11.24 243.672 11.6533 244.499 12.16C245.325 12.64 246.165 13.1467 247.019 13.68C247.872 14.2133 248.672 14.72 249.419 15.2C250.165 15.6533 250.779 16.0533 251.259 16.4L248.939 19.96C248.405 19.5867 247.765 19.1467 247.019 18.64C246.272 18.1333 245.485 17.6133 244.659 17.08C243.832 16.5467 243.005 16.0533 242.179 15.6C241.379 15.12 240.659 14.7067 240.019 14.36L242.299 10.92ZM284.939 10.76C285.232 10.7867 285.659 10.8133 286.219 10.84C286.779 10.8667 287.352 10.8933 287.939 10.92C288.525 10.92 289.019 10.92 289.419 10.92C289.952 10.92 290.712 10.92 291.699 10.92C292.685 10.92 293.792 10.92 295.019 10.92C296.245 10.92 297.472 10.92 298.699 10.92C299.952 10.92 301.099 10.92 302.139 10.92C303.205 10.92 304.072 10.92 304.739 10.92C305.219 10.92 305.725 10.92 306.259 10.92C306.792 10.8933 307.192 10.88 307.459 10.88C307.432 11.0933 307.419 11.4267 307.419 11.88C307.419 12.3333 307.419 12.7733 307.419 13.2C307.419 13.44 307.419 14.0267 307.419 14.96C307.419 15.8667 307.419 16.9867 307.419 18.32C307.419 19.6267 307.419 21.0267 307.419 22.52C307.419 23.9867 307.419 25.44 307.419 26.88C307.419 28.2933 307.419 29.56 307.419 30.68C307.419 31.7733 307.419 32.6 307.419 33.16C307.419 33.48 307.419 33.88 307.419 34.36C307.445 34.8667 307.472 35.2667 307.499 35.56H303.499C303.525 35.2933 303.539 34.9067 303.539 34.4C303.539 33.8933 303.539 33.4267 303.539 33C303.539 32.3067 303.539 31.4133 303.539 30.32C303.539 29.2 303.539 27.9867 303.539 26.68C303.539 25.3467 303.539 24.0133 303.539 22.68C303.539 21.32 303.539 20.0667 303.539 18.92C303.539 17.7733 303.539 16.8133 303.539 16.04C303.539 15.24 303.539 14.7333 303.539 14.52C303.299 14.52 302.845 14.52 302.179 14.52C301.539 14.52 300.752 14.52 299.819 14.52C298.912 14.52 297.952 14.52 296.939 14.52C295.925 14.52 294.925 14.52 293.939 14.52C292.979 14.52 292.099 14.52 291.299 14.52C290.499 14.52 289.872 14.52 289.419 14.52C289.019 14.52 288.512 14.5333 287.899 14.56C287.312 14.56 286.739 14.5733 286.179 14.6C285.645 14.6 285.232 14.6133 284.939 14.64V10.76ZM285.899 20.24C286.352 20.2667 286.939 20.2933 287.659 20.32C288.405 20.3467 289.125 20.36 289.819 20.36C290.165 20.36 290.752 20.36 291.579 20.36C292.432 20.36 293.405 20.36 294.499 20.36C295.619 20.36 296.765 20.36 297.939 20.36C299.139 20.36 300.272 20.36 301.339 20.36C302.405 20.36 303.312 20.36 304.059 20.36C304.805 20.36 305.272 20.36 305.459 20.36V23.96C305.245 23.96 304.765 23.96 304.019 23.96C303.299 23.96 302.405 23.96 301.339 23.96C300.272 23.96 299.139 23.96 297.939 23.96C296.765 23.96 295.619 23.96 294.499 23.96C293.405 23.96 292.432 23.96 291.579 23.96C290.752 23.96 290.179 23.96 289.859 23.96C289.139 23.96 288.405 23.96 287.659 23.96C286.939 23.96 286.352 23.9867 285.899 24.04V20.24ZM284.499 30.12C284.845 30.1467 285.312 30.1867 285.899 30.24C286.512 30.2667 287.165 30.28 287.859 30.28C288.259 30.28 288.925 30.28 289.859 30.28C290.792 30.28 291.859 30.28 293.059 30.28C294.285 30.28 295.552 30.28 296.859 30.28C298.192 30.28 299.459 30.28 300.659 30.28C301.859 30.28 302.885 30.28 303.739 30.28C304.619 30.28 305.192 30.28 305.459 30.28V33.96C305.112 33.96 304.499 33.96 303.619 33.96C302.739 33.96 301.699 33.96 300.499 33.96C299.325 33.96 298.085 33.96 296.779 33.96C295.472 33.96 294.205 33.96 292.979 33.96C291.779 33.96 290.725 33.96 289.819 33.96C288.912 33.96 288.259 33.96 287.859 33.96C287.272 33.96 286.645 33.9733 285.979 34C285.339 34.0267 284.845 34.0533 284.499 34.08V30.12ZM325.539 3.2C326.259 3.68 327.085 4.28 328.019 5C328.952 5.69333 329.899 6.44 330.859 7.24C331.845 8.04 332.779 8.81333 333.659 9.56C334.539 10.3067 335.245 10.9733 335.779 11.56L332.619 14.8C332.112 14.2667 331.445 13.6267 330.619 12.88C329.792 12.1067 328.899 11.32 327.939 10.52C327.005 9.69333 326.072 8.92 325.139 8.2C324.205 7.45333 323.365 6.82667 322.619 6.32L325.539 3.2ZM321.419 29.96C323.659 29.6133 325.725 29.16 327.619 28.6C329.512 28.0133 331.245 27.36 332.819 26.64C334.419 25.8933 335.859 25.1333 337.139 24.36C339.272 23.0533 341.232 21.5467 343.019 19.84C344.832 18.1333 346.419 16.3733 347.779 14.56C349.139 12.7467 350.219 10.9867 351.019 9.28L353.459 13.64C352.499 15.3733 351.312 17.1067 349.899 18.84C348.512 20.5733 346.939 22.24 345.179 23.84C343.419 25.4133 341.499 26.84 339.419 28.12C338.085 28.9467 336.619 29.7467 335.019 30.52C333.445 31.2933 331.739 31.9867 329.899 32.6C328.085 33.2133 326.152 33.7067 324.099 34.08L321.419 29.96ZM375.099 1.16C374.939 1.93333 374.712 2.88 374.419 4C374.152 5.09333 373.752 6.33333 373.219 7.72C372.765 8.84 372.205 9.98667 371.539 11.16C370.899 12.3333 370.232 13.4 369.539 14.36C369.992 14.0933 370.512 13.88 371.099 13.72C371.712 13.5333 372.325 13.4 372.939 13.32C373.579 13.2133 374.152 13.16 374.659 13.16C376.259 13.16 377.605 13.6267 378.699 14.56C379.792 15.4667 380.339 16.7867 380.339 18.52C380.339 19.0533 380.339 19.7067 380.339 20.48C380.339 21.2533 380.352 22.0667 380.379 22.92C380.405 23.7733 380.419 24.6133 380.419 25.44C380.445 26.2667 380.459 26.9867 380.459 27.6H376.659C376.685 27.0933 376.712 26.5067 376.739 25.84C376.765 25.1467 376.779 24.4267 376.779 23.68C376.805 22.9333 376.819 22.2133 376.819 21.52C376.819 20.8267 376.819 20.2133 376.819 19.68C376.792 18.48 376.432 17.6133 375.739 17.08C375.045 16.5467 374.232 16.28 373.299 16.28C372.099 16.28 370.899 16.56 369.699 17.12C368.525 17.68 367.512 18.36 366.659 19.16C366.099 19.72 365.512 20.36 364.899 21.08C364.312 21.8 363.685 22.5867 363.019 23.44L359.579 20.88C361.419 19.1467 362.979 17.4933 364.259 15.92C365.539 14.3467 366.592 12.8533 367.419 11.44C368.272 10 368.939 8.64 369.419 7.36C369.845 6.26667 370.192 5.16 370.459 4.04C370.725 2.89333 370.885 1.82667 370.939 0.839999L375.099 1.16ZM360.779 5.2C361.845 5.36 363.019 5.48 364.299 5.56C365.579 5.61333 366.699 5.64 367.659 5.64C369.445 5.64 371.379 5.6 373.459 5.52C375.539 5.44 377.632 5.30666 379.739 5.12C381.872 4.93333 383.885 4.66667 385.779 4.32V8.04C384.365 8.22667 382.859 8.4 381.259 8.56C379.659 8.72 378.032 8.85333 376.379 8.96C374.725 9.04 373.139 9.10667 371.619 9.16C370.099 9.18667 368.712 9.2 367.459 9.2C366.899 9.2 366.232 9.2 365.459 9.2C364.712 9.17333 363.925 9.13333 363.099 9.08C362.299 9.02667 361.525 8.98667 360.779 8.96V5.2ZM391.859 15.6C391.485 15.7333 391.045 15.88 390.539 16.04C390.059 16.2 389.579 16.3733 389.099 16.56C388.619 16.7467 388.179 16.92 387.779 17.08C386.419 17.6133 384.832 18.2533 383.019 19C381.232 19.7467 379.392 20.6133 377.499 21.6C376.219 22.2667 375.112 22.9333 374.179 23.6C373.245 24.2667 372.512 24.96 371.979 25.68C371.472 26.4 371.219 27.1867 371.219 28.04C371.219 28.7333 371.379 29.2933 371.699 29.72C372.019 30.1467 372.459 30.48 373.019 30.72C373.605 30.9333 374.299 31.0933 375.099 31.2C375.925 31.28 376.845 31.32 377.859 31.32C379.459 31.32 381.272 31.2267 383.299 31.04C385.325 30.8533 387.219 30.6 388.979 30.28L388.859 34.32C387.899 34.4267 386.779 34.5333 385.499 34.64C384.219 34.7733 382.899 34.8667 381.539 34.92C380.205 35 378.939 35.04 377.739 35.04C375.739 35.04 373.939 34.8533 372.339 34.48C370.739 34.1067 369.472 33.4667 368.539 32.56C367.605 31.6267 367.139 30.3333 367.139 28.68C367.139 27.3733 367.432 26.2 368.019 25.16C368.632 24.0933 369.419 23.1333 370.379 22.28C371.365 21.4267 372.459 20.64 373.659 19.92C374.859 19.2 376.045 18.5467 377.219 17.96C378.472 17.2933 379.632 16.72 380.699 16.24C381.792 15.7333 382.805 15.28 383.739 14.88C384.699 14.48 385.592 14.08 386.419 13.68C387.112 13.3867 387.765 13.1067 388.379 12.84C388.992 12.5467 389.605 12.24 390.219 11.92L391.859 15.6ZM4.88 51.36C5.49333 51.44 6.13333 51.5067 6.8 51.56C7.46667 51.5867 8.12 51.6 8.76 51.6C9.24 51.6 9.93333 51.6 10.84 51.6C11.7733 51.6 12.8 51.6 13.92 51.6C15.04 51.6 16.1467 51.6 17.24 51.6C18.36 51.6 19.36 51.6 20.24 51.6C21.1467 51.6 21.8267 51.6 22.28 51.6C22.8933 51.6 23.5467 51.5867 24.24 51.56C24.96 51.5067 25.64 51.44 26.28 51.36V55.48C25.64 55.4267 24.9733 55.3867 24.28 55.36C23.5867 55.3333 22.92 55.32 22.28 55.32C21.8267 55.32 21.1467 55.32 20.24 55.32C19.36 55.32 18.36 55.32 17.24 55.32C16.1467 55.32 15.04 55.32 13.92 55.32C12.8 55.32 11.7867 55.32 10.88 55.32C9.97333 55.32 9.28 55.32 8.8 55.32C8.13333 55.32 7.45333 55.3333 6.76 55.36C6.06667 55.3867 5.44 55.4267 4.88 55.48V51.36ZM0.16 61.48C0.72 61.5333 1.30667 61.5867 1.92 61.64C2.56 61.6667 3.18667 61.68 3.8 61.68C4.14667 61.68 4.82667 61.68 5.84 61.68C6.88 61.68 8.13333 61.68 9.6 61.68C11.0933 61.68 12.68 61.68 14.36 61.68C16.0667 61.68 17.7733 61.68 19.48 61.68C21.1867 61.68 22.7733 61.68 24.24 61.68C25.7067 61.68 26.9467 61.68 27.96 61.68C29 61.68 29.68 61.68 30 61.68C30.4267 61.68 30.96 61.6667 31.6 61.64C32.2667 61.6133 32.8533 61.56 33.36 61.48V65.6C32.88 65.5733 32.32 65.56 31.68 65.56C31.0667 65.5333 30.5067 65.52 30 65.52C29.68 65.52 29 65.52 27.96 65.52C26.9467 65.52 25.7067 65.52 24.24 65.52C22.7733 65.52 21.1867 65.52 19.48 65.52C17.7733 65.52 16.0667 65.52 14.36 65.52C12.68 65.52 11.0933 65.52 9.6 65.52C8.13333 65.52 6.88 65.52 5.84 65.52C4.82667 65.52 4.14667 65.52 3.8 65.52C3.21333 65.52 2.6 65.5333 1.96 65.56C1.32 65.56 0.72 65.5867 0.16 65.64V61.48ZM19.72 63.6C19.72 66.16 19.52 68.48 19.12 70.56C18.72 72.64 18.08 74.5067 17.2 76.16C16.72 77.0667 16.08 77.9867 15.28 78.92C14.48 79.8267 13.56 80.6933 12.52 81.52C11.5067 82.3467 10.4133 83.0533 9.24 83.64L5.56 80.92C7.02667 80.3067 8.42667 79.4667 9.76 78.4C11.12 77.3333 12.1867 76.1867 12.96 74.96C13.9733 73.3867 14.6267 71.6533 14.92 69.76C15.2133 67.84 15.3733 65.8 15.4 63.64L19.72 63.6ZM28.48 48.32C28.8267 48.7733 29.2 49.3333 29.6 50C30 50.6667 30.3867 51.3333 30.76 52C31.1333 52.6667 31.4533 53.2667 31.72 53.8L29.08 54.92C28.68 54.12 28.1867 53.1867 27.6 52.12C27.0133 51.0533 26.4533 50.1467 25.92 49.4L28.48 48.32ZM33 46.6C33.3733 47.1067 33.76 47.6933 34.16 48.36C34.5867 49.0267 34.9867 49.6933 35.36 50.36C35.76 51 36.08 51.56 36.32 52.04L33.72 53.2C33.2933 52.3467 32.7733 51.4 32.16 50.36C31.5733 49.32 31 48.4267 30.44 47.68L33 46.6ZM69.24 50.24C69.48 50.72 69.7333 51.2933 70 51.96C70.2933 52.6267 70.56 53.2933 70.8 53.96C71.0667 54.6 71.2933 55.1867 71.48 55.72L69.16 56.52C68.9733 55.9333 68.7467 55.32 68.48 54.68C68.24 54.0133 67.9867 53.36 67.72 52.72C67.48 52.0533 67.2267 51.4667 66.96 50.96L69.24 50.24ZM73.28 48.96C73.5467 49.4667 73.8133 50.0533 74.08 50.72C74.3733 51.36 74.6533 52.0133 74.92 52.68C75.1867 53.32 75.4 53.92 75.56 54.48L73.24 55.24C72.9467 54.36 72.6 53.4133 72.2 52.4C71.8 51.36 71.4 50.4533 71 49.68L73.28 48.96ZM65.6 63.6C65.6 66.1867 65.4133 68.5067 65.04 70.56C64.6933 72.5867 64.0933 74.4133 63.24 76.04C62.3867 77.64 61.2 79.08 59.68 80.36C58.16 81.6133 56.2267 82.76 53.88 83.8L50.48 80.64C52.3733 79.9467 54 79.1733 55.36 78.32C56.7467 77.4667 57.8933 76.4133 58.8 75.16C59.7067 73.9067 60.3733 72.3733 60.8 70.56C61.2533 68.72 61.48 66.48 61.48 63.84V53.72C61.48 52.8933 61.4533 52.1867 61.4 51.6C61.3733 50.9867 61.3333 50.5333 61.28 50.24H65.8C65.7733 50.5333 65.7333 50.9867 65.68 51.6C65.6267 52.1867 65.6 52.8933 65.6 53.72V63.6ZM51.16 50.52C51.1333 50.7867 51.0933 51.2133 51.04 51.8C50.9867 52.36 50.96 53.0133 50.96 53.76V68.24C50.96 68.7733 50.9733 69.3067 51 69.84C51.0267 70.3733 51.04 70.84 51.04 71.24C51.0667 71.64 51.0933 71.9333 51.12 72.12H46.68C46.7067 71.9333 46.7333 71.64 46.76 71.24C46.7867 70.84 46.8133 70.3733 46.84 69.84C46.8667 69.3067 46.88 68.7733 46.88 68.24V53.72C46.88 53.24 46.8533 52.72 46.8 52.16C46.7733 51.6 46.7333 51.0533 46.68 50.52H51.16ZM38.8 58.04C38.9867 58.0667 39.2933 58.1067 39.72 58.16C40.1467 58.2133 40.64 58.2667 41.2 58.32C41.76 58.3467 42.3467 58.36 42.96 58.36H69.32C70.3067 58.36 71.12 58.3333 71.76 58.28C72.4267 58.2267 72.9467 58.1733 73.32 58.12V62.36C73.0267 62.3333 72.5333 62.3067 71.84 62.28C71.1467 62.2533 70.32 62.24 69.36 62.24H42.96C42.3467 62.24 41.76 62.2533 41.2 62.28C40.6667 62.28 40.1867 62.2933 39.76 62.32C39.36 62.3467 39.04 62.36 38.8 62.36V58.04ZM80.04 66.08C83.56 65.1467 86.7867 64.04 89.72 62.76C92.68 61.4533 95.2667 60.1067 97.48 58.72C98.8933 57.8667 100.267 56.9067 101.6 55.84C102.96 54.7733 104.24 53.6667 105.44 52.52C106.64 51.3733 107.693 50.2667 108.6 49.2L111.96 52.4C110.787 53.6 109.52 54.7867 108.16 55.96C106.8 57.1333 105.36 58.2667 103.84 59.36C102.347 60.4267 100.813 61.44 99.24 62.4C97.7733 63.3067 96.1067 64.2267 94.24 65.16C92.3733 66.0667 90.4 66.9467 88.32 67.8C86.24 68.6267 84.1333 69.3733 82 70.04L80.04 66.08ZM96.76 60.8L101.2 59.64V77.76C101.2 78.2933 101.2 78.88 101.2 79.52C101.227 80.1333 101.253 80.7067 101.28 81.24C101.333 81.7733 101.4 82.1867 101.48 82.48H96.52C96.5467 82.1867 96.5867 81.7733 96.64 81.24C96.6933 80.7067 96.72 80.1333 96.72 79.52C96.7467 78.88 96.76 78.2933 96.76 77.76V60.8ZM126.32 51.2C127.04 51.68 127.867 52.28 128.8 53C129.733 53.6933 130.68 54.44 131.64 55.24C132.627 56.04 133.56 56.8133 134.44 57.56C135.32 58.3067 136.027 58.9733 136.56 59.56L133.4 62.8C132.893 62.2667 132.227 61.6267 131.4 60.88C130.573 60.1067 129.68 59.32 128.72 58.52C127.787 57.6933 126.853 56.92 125.92 56.2C124.987 55.4533 124.147 54.8267 123.4 54.32L126.32 51.2ZM122.2 77.96C124.44 77.6133 126.507 77.16 128.4 76.6C130.293 76.0133 132.027 75.36 133.6 74.64C135.2 73.8933 136.64 73.1333 137.92 72.36C140.053 71.0533 142.013 69.5467 143.8 67.84C145.613 66.1333 147.2 64.3733 148.56 62.56C149.92 60.7467 151 58.9867 151.8 57.28L154.24 61.64C153.28 63.3733 152.093 65.1067 150.68 66.84C149.293 68.5733 147.72 70.24 145.96 71.84C144.2 73.4133 142.28 74.84 140.2 76.12C138.867 76.9467 137.4 77.7467 135.8 78.52C134.227 79.2933 132.52 79.9867 130.68 80.6C128.867 81.2133 126.933 81.7067 124.88 82.08L122.2 77.96ZM182.56 49.08C182.533 49.24 182.493 49.52 182.44 49.92C182.413 50.32 182.387 50.72 182.36 51.12C182.333 51.52 182.32 51.8133 182.32 52C182.293 52.5067 182.267 53.2133 182.24 54.12C182.24 55 182.24 55.9733 182.24 57.04C182.24 58.1067 182.24 59.1867 182.24 60.28C182.267 61.3467 182.28 62.36 182.28 63.32C182.307 64.2533 182.32 65.04 182.32 65.68L178.44 64.08C178.44 63.6533 178.44 63.0533 178.44 62.28C178.44 61.48 178.427 60.5867 178.4 59.6C178.4 58.5867 178.387 57.5867 178.36 56.6C178.36 55.6133 178.347 54.7067 178.32 53.88C178.32 53.0533 178.307 52.4267 178.28 52C178.227 51.36 178.16 50.76 178.08 50.2C178.027 49.64 177.987 49.2667 177.96 49.08H182.56ZM160.68 54.4C161.827 54.3733 163.107 54.3467 164.52 54.32C165.96 54.2933 167.48 54.2667 169.08 54.24C170.68 54.1867 172.267 54.1467 173.84 54.12C175.44 54.0667 176.96 54.04 178.4 54.04C179.84 54.0133 181.12 54 182.24 54C183.387 54 184.56 54 185.76 54C186.96 54 188.107 54 189.2 54C190.293 54 191.28 54 192.16 54C193.067 54 193.773 54 194.28 54L194.2 57.76C193.053 57.7067 191.493 57.6667 189.52 57.64C187.573 57.5867 185.12 57.56 182.16 57.56C180.4 57.56 178.587 57.5733 176.72 57.6C174.853 57.6267 172.973 57.68 171.08 57.76C169.213 57.8133 167.4 57.88 165.64 57.96C163.907 58.04 162.293 58.1333 160.8 58.24L160.68 54.4ZM181.96 66.08C181.96 68.0533 181.693 69.6933 181.16 71C180.653 72.28 179.92 73.2533 178.96 73.92C178 74.56 176.84 74.88 175.48 74.88C174.653 74.88 173.84 74.7333 173.04 74.44C172.267 74.1467 171.547 73.7067 170.88 73.12C170.24 72.5067 169.72 71.7733 169.32 70.92C168.947 70.04 168.76 69.04 168.76 67.92C168.76 66.5067 169.093 65.2667 169.76 64.2C170.453 63.1067 171.36 62.2533 172.48 61.64C173.627 61.0267 174.867 60.72 176.2 60.72C177.853 60.72 179.227 61.0933 180.32 61.84C181.44 62.5867 182.28 63.6 182.84 64.88C183.4 66.1333 183.68 67.56 183.68 69.16C183.68 70.4667 183.48 71.8267 183.08 73.24C182.68 74.6267 182.013 75.9733 181.08 77.28C180.147 78.5867 178.88 79.7867 177.28 80.88C175.707 81.9467 173.733 82.8267 171.36 83.52L167.96 80.16C169.747 79.7867 171.36 79.2933 172.8 78.68C174.24 78.04 175.48 77.2667 176.52 76.36C177.56 75.4267 178.36 74.3333 178.92 73.08C179.507 71.8 179.8 70.32 179.8 68.64C179.8 67.04 179.44 65.88 178.72 65.16C178.027 64.44 177.173 64.08 176.16 64.08C175.547 64.08 174.96 64.2267 174.4 64.52C173.84 64.8133 173.387 65.24 173.04 65.8C172.693 66.36 172.52 67.04 172.52 67.84C172.52 68.96 172.88 69.84 173.6 70.48C174.347 71.0933 175.2 71.4 176.16 71.4C176.933 71.4 177.587 71.1867 178.12 70.76C178.68 70.3067 179.067 69.6133 179.28 68.68C179.493 67.72 179.44 66.5067 179.12 65.04L181.96 66.08ZM206.2 51.08C206.707 51.1333 207.24 51.1733 207.8 51.2C208.387 51.2267 208.92 51.24 209.4 51.24C209.8 51.24 210.44 51.24 211.32 51.24C212.227 51.2133 213.24 51.1867 214.36 51.16C215.507 51.1333 216.64 51.1067 217.76 51.08C218.88 51.0267 219.88 50.9733 220.76 50.92C221.667 50.8667 222.333 50.8267 222.76 50.8C223.48 50.7467 224.027 50.6933 224.4 50.64C224.8 50.5867 225.107 50.52 225.32 50.44L227.52 53.32C227.12 53.5867 226.707 53.8533 226.28 54.12C225.853 54.3867 225.427 54.6933 225 55.04C224.493 55.4133 223.827 55.9333 223 56.6C222.2 57.24 221.333 57.96 220.4 58.76C219.467 59.5333 218.547 60.2933 217.64 61.04C216.733 61.7867 215.92 62.4533 215.2 63.04C216 62.7733 216.8 62.6 217.6 62.52C218.4 62.4133 219.2 62.36 220 62.36C222.213 62.36 224.2 62.7867 225.96 63.64C227.72 64.4933 229.107 65.64 230.12 67.08C231.133 68.52 231.64 70.1867 231.64 72.08C231.64 74.1867 231.08 76.0667 229.96 77.72C228.867 79.3733 227.267 80.6667 225.16 81.6C223.08 82.5333 220.547 83 217.56 83C215.72 83 214.107 82.7467 212.72 82.24C211.333 81.7333 210.253 81.0267 209.48 80.12C208.733 79.1867 208.36 78.12 208.36 76.92C208.36 75.9333 208.627 75.0133 209.16 74.16C209.72 73.28 210.493 72.5867 211.48 72.08C212.493 71.5467 213.653 71.28 214.96 71.28C216.773 71.28 218.28 71.6533 219.48 72.4C220.707 73.12 221.64 74.08 222.28 75.28C222.947 76.48 223.307 77.7867 223.36 79.2L219.72 79.72C219.64 78.12 219.173 76.8133 218.32 75.8C217.493 74.7867 216.373 74.28 214.96 74.28C214.107 74.28 213.4 74.5067 212.84 74.96C212.307 75.4133 212.04 75.9467 212.04 76.56C212.04 77.44 212.48 78.1333 213.36 78.64C214.267 79.1467 215.427 79.4 216.84 79.4C219.107 79.4 221.04 79.12 222.64 78.56C224.24 77.9733 225.453 77.1333 226.28 76.04C227.107 74.92 227.52 73.5733 227.52 72C227.52 70.7467 227.147 69.6267 226.4 68.64C225.653 67.6533 224.627 66.8933 223.32 66.36C222.013 65.8 220.52 65.52 218.84 65.52C217.24 65.52 215.773 65.7067 214.44 66.08C213.133 66.4267 211.907 66.9467 210.76 67.64C209.613 68.3067 208.48 69.1467 207.36 70.16C206.267 71.1467 205.133 72.28 203.96 73.56L201.04 70.6C201.84 69.96 202.72 69.24 203.68 68.44C204.64 67.64 205.6 66.84 206.56 66.04C207.547 65.2133 208.467 64.44 209.32 63.72C210.2 62.9733 210.933 62.36 211.52 61.88C212.08 61.4267 212.76 60.88 213.56 60.24C214.36 59.5733 215.187 58.88 216.04 58.16C216.893 57.44 217.707 56.76 218.48 56.12C219.253 55.4533 219.893 54.8933 220.4 54.44C219.973 54.4667 219.387 54.4933 218.64 54.52C217.893 54.5467 217.067 54.5867 216.16 54.64C215.28 54.6667 214.387 54.7067 213.48 54.76C212.573 54.7867 211.747 54.8267 211 54.88C210.253 54.9067 209.68 54.9333 209.28 54.96C208.8 54.9867 208.293 55.0267 207.76 55.08C207.253 55.1067 206.773 55.1467 206.32 55.2L206.2 51.08ZM244.76 71.16C245.933 71.16 246.987 71.4533 247.92 72.04C248.853 72.6 249.6 73.3467 250.16 74.28C250.72 75.2133 251 76.2667 251 77.44C251 78.5867 250.72 79.64 250.16 80.6C249.6 81.5333 248.853 82.28 247.92 82.84C246.987 83.4 245.933 83.68 244.76 83.68C243.613 83.68 242.56 83.4 241.6 82.84C240.667 82.28 239.907 81.5333 239.32 80.6C238.76 79.64 238.48 78.5867 238.48 77.44C238.48 76.2667 238.76 75.2133 239.32 74.28C239.907 73.3467 240.667 72.6 241.6 72.04C242.56 71.4533 243.613 71.16 244.76 71.16ZM244.76 81.28C245.827 81.28 246.733 80.9067 247.48 80.16C248.227 79.4133 248.6 78.5067 248.6 77.44C248.6 76.72 248.427 76.08 248.08 75.52C247.76 74.9333 247.307 74.4667 246.72 74.12C246.133 73.7733 245.48 73.6 244.76 73.6C244.067 73.6 243.427 73.7733 242.84 74.12C242.253 74.4667 241.787 74.9333 241.44 75.52C241.093 76.08 240.92 76.72 240.92 77.44C240.92 78.1333 241.093 78.7867 241.44 79.4C241.787 79.9867 242.253 80.4533 242.84 80.8C243.427 81.12 244.067 81.28 244.76 81.28Z" fill="black"/>
</svg>
