<svg width="400" height="110" viewBox="0 0 400 110" fill="none" xmlns="http://www.w3.org/2000/svg">
<path d="M6.6 12.16C7.32 12.2133 8.10667 12.2667 8.96 12.32C9.81333 12.3733 10.5733 12.4 11.24 12.4H31.12C31.6533 12.4 32.2267 12.4 32.84 12.4C33.48 12.3733 33.9733 12.3467 34.32 12.32C34.2933 12.7733 34.2667 13.32 34.24 13.96C34.24 14.5733 34.24 15.1467 34.24 15.68V36.36C34.24 37.0533 34.2533 37.8267 34.28 38.68C34.3333 39.5067 34.3733 40.1467 34.4 40.6H29.84C29.84 40.1467 29.8533 39.5867 29.88 38.92C29.9067 38.2267 29.92 37.52 29.92 36.8V16.44H11.24C10.4667 16.44 9.62667 16.4533 8.72 16.48C7.81333 16.5067 7.10667 16.5467 6.6 16.6V12.16ZM6.12 34.08C6.70667 34.1067 7.41333 34.1467 8.24 34.2C9.06667 34.2533 9.90667 34.28 10.76 34.28H32.28V38.44H10.92C10.12 38.44 9.26667 38.4533 8.36 38.48C7.45333 38.5067 6.70667 38.5467 6.12 38.6V34.08ZM51.44 9.24C52.48 9.37333 53.72 9.57333 55.16 9.84C56.6 10.08 58.1333 10.36 59.76 10.68C61.3867 11 63 11.3467 64.6 11.72C66.2267 12.0933 67.7467 12.48 69.16 12.88C70.5733 13.2533 71.7867 13.6133 72.8 13.96L71.16 17.88C70.2267 17.5067 69.0667 17.1333 67.68 16.76C66.32 16.3867 64.84 16.0133 63.24 15.64C61.6667 15.24 60.0667 14.8667 58.44 14.52C56.84 14.1733 55.3067 13.8667 53.84 13.6C52.4 13.3333 51.1067 13.1333 49.96 13L51.44 9.24ZM49.64 19.92C51.0267 20.16 52.6267 20.4667 54.44 20.84C56.2533 21.1867 58.1333 21.5867 60.08 22.04C62.0267 22.4667 63.8667 22.92 65.6 23.4C67.36 23.8533 68.8667 24.3067 70.12 24.76L68.56 28.64C67.3867 28.2133 65.9467 27.76 64.24 27.28C62.5333 26.7733 60.7067 26.2933 58.76 25.84C56.84 25.3867 54.9467 24.9733 53.08 24.6C51.24 24.2267 49.6 23.9333 48.16 23.72L49.64 19.92ZM47.52 31.48C48.8533 31.6933 50.3733 31.9733 52.08 32.32C53.7867 32.64 55.5467 33.0133 57.36 33.44C59.1733 33.84 60.96 34.2667 62.72 34.72C64.5067 35.1733 66.1733 35.64 67.72 36.12C69.2667 36.5733 70.5867 37.0133 71.68 37.44L69.92 41.36C68.8533 40.9067 67.5467 40.4533 66 40C64.48 39.52 62.8267 39.0533 61.04 38.6C59.2533 38.12 57.44 37.68 55.6 37.28C53.7867 36.8533 52.04 36.48 50.36 36.16C48.7067 35.84 47.2267 35.5867 45.92 35.4L47.52 31.48ZM109.84 20.96C109.787 21.1733 109.733 21.4133 109.68 21.68C109.627 21.9467 109.573 22.1867 109.52 22.4C109.467 22.96 109.36 23.76 109.2 24.8C109.067 25.8133 108.907 26.9333 108.72 28.16C108.533 29.3867 108.347 30.6133 108.16 31.84C107.973 33.04 107.8 34.1467 107.64 35.16C107.507 36.1733 107.387 36.96 107.28 37.52H103C103.08 37.04 103.187 36.3467 103.32 35.44C103.48 34.5067 103.653 33.48 103.84 32.36C104.027 31.24 104.2 30.1067 104.36 28.96C104.52 27.8133 104.653 26.7733 104.76 25.84C104.893 24.88 104.96 24.1467 104.96 23.64C104.507 23.64 103.853 23.64 103 23.64C102.147 23.64 101.2 23.64 100.16 23.64C99.12 23.64 98.0933 23.64 97.08 23.64C96.0933 23.64 95.24 23.64 94.52 23.64C93.8 23.64 93.32 23.64 93.08 23.64C92.4933 23.64 91.88 23.6533 91.24 23.68C90.6267 23.7067 90.0533 23.7333 89.52 23.76V19.6C89.8667 19.6267 90.24 19.6667 90.64 19.72C91.0667 19.7467 91.4933 19.7733 91.92 19.8C92.3467 19.8 92.72 19.8 93.04 19.8C93.3867 19.8 93.9333 19.8 94.68 19.8C95.4267 19.8 96.2533 19.8 97.16 19.8C98.0933 19.8 99.04 19.8 100 19.8C100.96 19.8 101.827 19.8 102.6 19.8C103.373 19.8 103.973 19.8 104.4 19.8C104.64 19.8 104.92 19.7867 105.24 19.76C105.56 19.7333 105.867 19.6933 106.16 19.64C106.453 19.5867 106.667 19.5333 106.8 19.48L109.84 20.96ZM85.8 35.96C86.3333 36.0133 86.9067 36.0667 87.52 36.12C88.1333 36.1467 88.76 36.16 89.4 36.16C89.7733 36.16 90.5067 36.16 91.6 36.16C92.6933 36.16 93.9867 36.16 95.48 36.16C97 36.16 98.5733 36.16 100.2 36.16C101.853 36.16 103.427 36.16 104.92 36.16C106.413 36.16 107.693 36.16 108.76 36.16C109.827 36.16 110.533 36.16 110.88 36.16C111.333 36.16 111.907 36.1467 112.6 36.12C113.293 36.0933 113.88 36.0533 114.36 36V40.08C114.093 40.0533 113.747 40.0267 113.32 40C112.92 40 112.507 40 112.08 40C111.653 40 111.28 40 110.96 40C110.613 40 109.88 40 108.76 40C107.667 40 106.36 40 104.84 40C103.347 40 101.773 40 100.12 40C98.4667 40 96.88 40 95.36 40C93.8667 40 92.5867 40 91.52 40C90.4533 40 89.7467 40 89.4 40C88.76 40 88.1733 40 87.64 40C87.1067 40.0267 86.4933 40.0533 85.8 40.08V35.96ZM127 13.48C127.667 13.5333 128.373 13.5867 129.12 13.64C129.867 13.6667 130.573 13.68 131.24 13.68C131.72 13.68 132.413 13.68 133.32 13.68C134.253 13.68 135.293 13.68 136.44 13.68C137.587 13.68 138.773 13.68 140 13.68C141.227 13.68 142.387 13.68 143.48 13.68C144.573 13.68 145.533 13.68 146.36 13.68C147.187 13.68 147.773 13.68 148.12 13.68C148.893 13.68 149.64 13.6667 150.36 13.64C151.107 13.5867 151.747 13.5333 152.28 13.48V18.04C151.747 17.9867 151.093 17.96 150.32 17.96C149.547 17.9333 148.813 17.92 148.12 17.92C147.8 17.92 147.213 17.92 146.36 17.92C145.507 17.92 144.493 17.92 143.32 17.92C142.173 17.92 140.973 17.92 139.72 17.92C138.467 17.92 137.253 17.92 136.08 17.92C134.933 17.92 133.933 17.92 133.08 17.92C132.227 17.92 131.627 17.92 131.28 17.92C130.56 17.92 129.827 17.9333 129.08 17.96C128.333 17.96 127.64 17.9867 127 18.04V13.48ZM123.56 33.16C124.307 33.2133 125.067 33.2667 125.84 33.32C126.613 33.3733 127.373 33.4 128.12 33.4C128.467 33.4 129.107 33.4 130.04 33.4C130.973 33.4 132.093 33.4 133.4 33.4C134.733 33.4 136.147 33.4 137.64 33.4C139.16 33.4 140.667 33.4 142.16 33.4C143.653 33.4 145.053 33.4 146.36 33.4C147.693 33.4 148.827 33.4 149.76 33.4C150.693 33.4 151.32 33.4 151.64 33.4C152.28 33.4 152.947 33.3867 153.64 33.36C154.333 33.3067 155 33.24 155.64 33.16V38C155 37.92 154.307 37.8667 153.56 37.84C152.84 37.8133 152.2 37.8 151.64 37.8C151.32 37.8 150.693 37.8 149.76 37.8C148.827 37.8 147.693 37.8 146.36 37.8C145.053 37.8 143.653 37.8 142.16 37.8C140.667 37.8 139.16 37.8 137.64 37.8C136.147 37.8 134.733 37.8 133.4 37.8C132.093 37.8 130.973 37.8 130.04 37.8C129.107 37.8 128.467 37.8 128.12 37.8C127.373 37.8 126.6 37.8267 125.8 37.88C125.027 37.9067 124.28 37.9467 123.56 38V33.16ZM177.12 8.88C176.933 9.36 176.733 9.88 176.52 10.44C176.333 11 176.147 11.4933 175.96 11.92C175.773 12.5333 175.52 13.2267 175.2 14C174.907 14.7733 174.587 15.56 174.24 16.36C173.92 17.1333 173.573 17.88 173.2 18.6C172.667 19.64 172.013 20.7467 171.24 21.92C170.467 23.0667 169.64 24.1733 168.76 25.24C167.907 26.28 167.053 27.1733 166.2 27.92L162.24 25.52C162.96 24.9867 163.653 24.3733 164.32 23.68C165.013 22.96 165.667 22.2133 166.28 21.44C166.893 20.64 167.453 19.8667 167.96 19.12C168.467 18.3733 168.907 17.6933 169.28 17.08C169.813 16.0933 170.267 15.12 170.64 14.16C171.013 13.1733 171.32 12.2933 171.56 11.52C171.747 10.9333 171.893 10.3333 172 9.72C172.133 9.10667 172.213 8.52 172.24 7.96L177.12 8.88ZM171.56 15.44C171.96 15.44 172.587 15.44 173.44 15.44C174.32 15.44 175.36 15.44 176.56 15.44C177.76 15.44 179.027 15.44 180.36 15.44C181.693 15.44 183.013 15.44 184.32 15.44C185.653 15.44 186.893 15.44 188.04 15.44C189.213 15.44 190.213 15.44 191.04 15.44C191.893 15.44 192.48 15.44 192.8 15.44C193.307 15.44 193.933 15.4267 194.68 15.4C195.427 15.3733 196.107 15.3067 196.72 15.2V19.52C196.053 19.4667 195.347 19.44 194.6 19.44C193.853 19.4133 193.253 19.4 192.8 19.4C192.4 19.4 191.667 19.4 190.6 19.4C189.56 19.4 188.32 19.4 186.88 19.4C185.44 19.4 183.907 19.4 182.28 19.4C180.68 19.4 179.133 19.4 177.64 19.4C176.147 19.4 174.813 19.4 173.64 19.4C172.493 19.4 171.653 19.4 171.12 19.4L171.56 15.44ZM186.64 17.68C186.56 20.6933 186.227 23.44 185.64 25.92C185.053 28.3733 184.24 30.5867 183.2 32.56C182.187 34.5067 180.947 36.2533 179.48 37.8C178.013 39.32 176.347 40.6667 174.48 41.84L170.24 38.96C170.853 38.6933 171.467 38.3867 172.08 38.04C172.72 37.6933 173.267 37.3333 173.72 36.96C174.787 36.1333 175.813 35.16 176.8 34.04C177.813 32.8933 178.72 31.5467 179.52 30C180.347 28.4533 181 26.6667 181.48 24.64C181.987 22.6133 182.267 20.28 182.32 17.64L186.64 17.68ZM203.88 22.16C204.333 22.1867 204.88 22.2267 205.52 22.28C206.187 22.3067 206.893 22.3333 207.64 22.36C208.413 22.3867 209.147 22.4 209.84 22.4C210.373 22.4 211.107 22.4 212.04 22.4C212.973 22.4 214.027 22.4 215.2 22.4C216.4 22.4 217.653 22.4 218.96 22.4C220.267 22.4 221.56 22.4 222.84 22.4C224.147 22.4 225.373 22.4 226.52 22.4C227.667 22.4 228.68 22.4 229.56 22.4C230.44 22.4 231.12 22.4 231.6 22.4C232.56 22.4 233.427 22.3733 234.2 22.32C234.973 22.24 235.6 22.1867 236.08 22.16V27.12C235.627 27.0933 234.987 27.0533 234.16 27C233.333 26.9467 232.48 26.92 231.6 26.92C231.147 26.92 230.467 26.92 229.56 26.92C228.68 26.92 227.667 26.92 226.52 26.92C225.373 26.92 224.147 26.92 222.84 26.92C221.56 26.92 220.267 26.92 218.96 26.92C217.653 26.92 216.4 26.92 215.2 26.92C214.027 26.92 212.973 26.92 212.04 26.92C211.107 26.92 210.373 26.92 209.84 26.92C208.747 26.92 207.653 26.9467 206.56 27C205.467 27.0267 204.573 27.0667 203.88 27.12V22.16ZM251.379 8.84C252.019 9.18667 252.739 9.62667 253.539 10.16C254.339 10.6667 255.165 11.2 256.019 11.76C256.872 12.2933 257.672 12.8133 258.419 13.32C259.192 13.8 259.805 14.2133 260.259 14.56L257.899 18C257.392 17.6267 256.765 17.1867 256.019 16.68C255.272 16.1733 254.485 15.6533 253.659 15.12C252.832 14.5867 252.019 14.08 251.219 13.6C250.419 13.0933 249.712 12.6533 249.099 12.28L251.379 8.84ZM244.779 37.36C246.245 37.0933 247.752 36.76 249.299 36.36C250.845 35.9333 252.379 35.4267 253.899 34.84C255.419 34.2267 256.885 33.5467 258.299 32.8C260.512 31.52 262.579 30.0933 264.499 28.52C266.419 26.9467 268.152 25.2667 269.699 23.48C271.245 21.6933 272.552 19.8533 273.619 17.96L276.059 22.2C274.245 24.92 271.992 27.52 269.299 30C266.632 32.48 263.672 34.6533 260.419 36.52C259.059 37.2933 257.579 38.0133 255.979 38.68C254.405 39.3467 252.832 39.92 251.259 40.4C249.712 40.9067 248.339 41.2667 247.139 41.48L244.779 37.36ZM245.299 17.92C245.939 18.24 246.672 18.6533 247.499 19.16C248.325 19.64 249.165 20.1467 250.019 20.68C250.872 21.2133 251.672 21.72 252.419 22.2C253.165 22.6533 253.779 23.0533 254.259 23.4L251.939 26.96C251.405 26.5867 250.765 26.1467 250.019 25.64C249.272 25.1333 248.485 24.6133 247.659 24.08C246.832 23.5467 246.005 23.0533 245.179 22.6C244.379 22.12 243.659 21.7067 243.019 21.36L245.299 17.92ZM287.939 17.76C288.232 17.7867 288.659 17.8133 289.219 17.84C289.779 17.8667 290.352 17.8933 290.939 17.92C291.525 17.92 292.019 17.92 292.419 17.92C292.952 17.92 293.712 17.92 294.699 17.92C295.685 17.92 296.792 17.92 298.019 17.92C299.245 17.92 300.472 17.92 301.699 17.92C302.952 17.92 304.099 17.92 305.139 17.92C306.205 17.92 307.072 17.92 307.739 17.92C308.219 17.92 308.725 17.92 309.259 17.92C309.792 17.8933 310.192 17.88 310.459 17.88C310.432 18.0933 310.419 18.4267 310.419 18.88C310.419 19.3333 310.419 19.7733 310.419 20.2C310.419 20.44 310.419 21.0267 310.419 21.96C310.419 22.8667 310.419 23.9867 310.419 25.32C310.419 26.6267 310.419 28.0267 310.419 29.52C310.419 30.9867 310.419 32.44 310.419 33.88C310.419 35.2933 310.419 36.56 310.419 37.68C310.419 38.7733 310.419 39.6 310.419 40.16C310.419 40.48 310.419 40.88 310.419 41.36C310.445 41.8667 310.472 42.2667 310.499 42.56H306.499C306.525 42.2933 306.539 41.9067 306.539 41.4C306.539 40.8933 306.539 40.4267 306.539 40C306.539 39.3067 306.539 38.4133 306.539 37.32C306.539 36.2 306.539 34.9867 306.539 33.68C306.539 32.3467 306.539 31.0133 306.539 29.68C306.539 28.32 306.539 27.0667 306.539 25.92C306.539 24.7733 306.539 23.8133 306.539 23.04C306.539 22.24 306.539 21.7333 306.539 21.52C306.299 21.52 305.845 21.52 305.179 21.52C304.539 21.52 303.752 21.52 302.819 21.52C301.912 21.52 300.952 21.52 299.939 21.52C298.925 21.52 297.925 21.52 296.939 21.52C295.979 21.52 295.099 21.52 294.299 21.52C293.499 21.52 292.872 21.52 292.419 21.52C292.019 21.52 291.512 21.5333 290.899 21.56C290.312 21.56 289.739 21.5733 289.179 21.6C288.645 21.6 288.232 21.6133 287.939 21.64V17.76ZM288.899 27.24C289.352 27.2667 289.939 27.2933 290.659 27.32C291.405 27.3467 292.125 27.36 292.819 27.36C293.165 27.36 293.752 27.36 294.579 27.36C295.432 27.36 296.405 27.36 297.499 27.36C298.619 27.36 299.765 27.36 300.939 27.36C302.139 27.36 303.272 27.36 304.339 27.36C305.405 27.36 306.312 27.36 307.059 27.36C307.805 27.36 308.272 27.36 308.459 27.36V30.96C308.245 30.96 307.765 30.96 307.019 30.96C306.299 30.96 305.405 30.96 304.339 30.96C303.272 30.96 302.139 30.96 300.939 30.96C299.765 30.96 298.619 30.96 297.499 30.96C296.405 30.96 295.432 30.96 294.579 30.96C293.752 30.96 293.179 30.96 292.859 30.96C292.139 30.96 291.405 30.96 290.659 30.96C289.939 30.96 289.352 30.9867 288.899 31.04V27.24ZM287.499 37.12C287.845 37.1467 288.312 37.1867 288.899 37.24C289.512 37.2667 290.165 37.28 290.859 37.28C291.259 37.28 291.925 37.28 292.859 37.28C293.792 37.28 294.859 37.28 296.059 37.28C297.285 37.28 298.552 37.28 299.859 37.28C301.192 37.28 302.459 37.28 303.659 37.28C304.859 37.28 305.885 37.28 306.739 37.28C307.619 37.28 308.192 37.28 308.459 37.28V40.96C308.112 40.96 307.499 40.96 306.619 40.96C305.739 40.96 304.699 40.96 303.499 40.96C302.325 40.96 301.085 40.96 299.779 40.96C298.472 40.96 297.205 40.96 295.979 40.96C294.779 40.96 293.725 40.96 292.819 40.96C291.912 40.96 291.259 40.96 290.859 40.96C290.272 40.96 289.645 40.9733 288.979 41C288.339 41.0267 287.845 41.0533 287.499 41.08V37.12ZM328.539 10.2C329.259 10.68 330.085 11.28 331.019 12C331.952 12.6933 332.899 13.44 333.859 14.24C334.845 15.04 335.779 15.8133 336.659 16.56C337.539 17.3067 338.245 17.9733 338.779 18.56L335.619 21.8C335.112 21.2667 334.445 20.6267 333.619 19.88C332.792 19.1067 331.899 18.32 330.939 17.52C330.005 16.6933 329.072 15.92 328.139 15.2C327.205 14.4533 326.365 13.8267 325.619 13.32L328.539 10.2ZM324.419 36.96C326.659 36.6133 328.725 36.16 330.619 35.6C332.512 35.0133 334.245 34.36 335.819 33.64C337.419 32.8933 338.859 32.1333 340.139 31.36C342.272 30.0533 344.232 28.5467 346.019 26.84C347.832 25.1333 349.419 23.3733 350.779 21.56C352.139 19.7467 353.219 17.9867 354.019 16.28L356.459 20.64C355.499 22.3733 354.312 24.1067 352.899 25.84C351.512 27.5733 349.939 29.24 348.179 30.84C346.419 32.4133 344.499 33.84 342.419 35.12C341.085 35.9467 339.619 36.7467 338.019 37.52C336.445 38.2933 334.739 38.9867 332.899 39.6C331.085 40.2133 329.152 40.7067 327.099 41.08L324.419 36.96ZM378.099 8.16C377.939 8.93333 377.712 9.88 377.419 11C377.152 12.0933 376.752 13.3333 376.219 14.72C375.765 15.84 375.205 16.9867 374.539 18.16C373.899 19.3333 373.232 20.4 372.539 21.36C372.992 21.0933 373.512 20.88 374.099 20.72C374.712 20.5333 375.325 20.4 375.939 20.32C376.579 20.2133 377.152 20.16 377.659 20.16C379.259 20.16 380.605 20.6267 381.699 21.56C382.792 22.4667 383.339 23.7867 383.339 25.52C383.339 26.0533 383.339 26.7067 383.339 27.48C383.339 28.2533 383.352 29.0667 383.379 29.92C383.405 30.7733 383.419 31.6133 383.419 32.44C383.445 33.2667 383.459 33.9867 383.459 34.6H379.659C379.685 34.0933 379.712 33.5067 379.739 32.84C379.765 32.1467 379.779 31.4267 379.779 30.68C379.805 29.9333 379.819 29.2133 379.819 28.52C379.819 27.8267 379.819 27.2133 379.819 26.68C379.792 25.48 379.432 24.6133 378.739 24.08C378.045 23.5467 377.232 23.28 376.299 23.28C375.099 23.28 373.899 23.56 372.699 24.12C371.525 24.68 370.512 25.36 369.659 26.16C369.099 26.72 368.512 27.36 367.899 28.08C367.312 28.8 366.685 29.5867 366.019 30.44L362.579 27.88C364.419 26.1467 365.979 24.4933 367.259 22.92C368.539 21.3467 369.592 19.8533 370.419 18.44C371.272 17 371.939 15.64 372.419 14.36C372.845 13.2667 373.192 12.16 373.459 11.04C373.725 9.89333 373.885 8.82667 373.939 7.84L378.099 8.16ZM363.779 12.2C364.845 12.36 366.019 12.48 367.299 12.56C368.579 12.6133 369.699 12.64 370.659 12.64C372.445 12.64 374.379 12.6 376.459 12.52C378.539 12.44 380.632 12.3067 382.739 12.12C384.872 11.9333 386.885 11.6667 388.779 11.32V15.04C387.365 15.2267 385.859 15.4 384.259 15.56C382.659 15.72 381.032 15.8533 379.379 15.96C377.725 16.04 376.139 16.1067 374.619 16.16C373.099 16.1867 371.712 16.2 370.459 16.2C369.899 16.2 369.232 16.2 368.459 16.2C367.712 16.1733 366.925 16.1333 366.099 16.08C365.299 16.0267 364.525 15.9867 363.779 15.96V12.2ZM394.859 22.6C394.485 22.7333 394.045 22.88 393.539 23.04C393.059 23.2 392.579 23.3733 392.099 23.56C391.619 23.7467 391.179 23.92 390.779 24.08C389.419 24.6133 387.832 25.2533 386.019 26C384.232 26.7467 382.392 27.6133 380.499 28.6C379.219 29.2667 378.112 29.9333 377.179 30.6C376.245 31.2667 375.512 31.96 374.979 32.68C374.472 33.4 374.219 34.1867 374.219 35.04C374.219 35.7333 374.379 36.2933 374.699 36.72C375.019 37.1467 375.459 37.48 376.019 37.72C376.605 37.9333 377.299 38.0933 378.099 38.2C378.925 38.28 379.845 38.32 380.859 38.32C382.459 38.32 384.272 38.2267 386.299 38.04C388.325 37.8533 390.219 37.6 391.979 37.28L391.859 41.32C390.899 41.4267 389.779 41.5333 388.499 41.64C387.219 41.7733 385.899 41.8667 384.539 41.92C383.205 42 381.939 42.04 380.739 42.04C378.739 42.04 376.939 41.8533 375.339 41.48C373.739 41.1067 372.472 40.4667 371.539 39.56C370.605 38.6267 370.139 37.3333 370.139 35.68C370.139 34.3733 370.432 33.2 371.019 32.16C371.632 31.0933 372.419 30.1333 373.379 29.28C374.365 28.4267 375.459 27.64 376.659 26.92C377.859 26.2 379.045 25.5467 380.219 24.96C381.472 24.2933 382.632 23.72 383.699 23.24C384.792 22.7333 385.805 22.28 386.739 21.88C387.699 21.48 388.592 21.08 389.419 20.68C390.112 20.3867 390.765 20.1067 391.379 19.84C391.992 19.5467 392.605 19.24 393.219 18.92L394.859 22.6Z" fill="black"/>
<path d="M7.88 72.36C8.49333 72.44 9.13333 72.5067 9.8 72.56C10.4667 72.5867 11.12 72.6 11.76 72.6C12.24 72.6 12.9333 72.6 13.84 72.6C14.7733 72.6 15.8 72.6 16.92 72.6C18.04 72.6 19.1467 72.6 20.24 72.6C21.36 72.6 22.36 72.6 23.24 72.6C24.1467 72.6 24.8267 72.6 25.28 72.6C25.8933 72.6 26.5467 72.5867 27.24 72.56C27.96 72.5067 28.64 72.44 29.28 72.36V76.48C28.64 76.4267 27.9733 76.3867 27.28 76.36C26.5867 76.3333 25.92 76.32 25.28 76.32C24.8267 76.32 24.1467 76.32 23.24 76.32C22.36 76.32 21.36 76.32 20.24 76.32C19.1467 76.32 18.04 76.32 16.92 76.32C15.8 76.32 14.7867 76.32 13.88 76.32C12.9733 76.32 12.28 76.32 11.8 76.32C11.1333 76.32 10.4533 76.3333 9.76 76.36C9.06667 76.3867 8.44 76.4267 7.88 76.48V72.36ZM3.16 82.48C3.72 82.5333 4.30667 82.5867 4.92 82.64C5.56 82.6667 6.18667 82.68 6.8 82.68C7.14667 82.68 7.82667 82.68 8.84 82.68C9.88 82.68 11.1333 82.68 12.6 82.68C14.0933 82.68 15.68 82.68 17.36 82.68C19.0667 82.68 20.7733 82.68 22.48 82.68C24.1867 82.68 25.7733 82.68 27.24 82.68C28.7067 82.68 29.9467 82.68 30.96 82.68C32 82.68 32.68 82.68 33 82.68C33.4267 82.68 33.96 82.6667 34.6 82.64C35.2667 82.6133 35.8533 82.56 36.36 82.48V86.6C35.88 86.5733 35.32 86.56 34.68 86.56C34.0667 86.5333 33.5067 86.52 33 86.52C32.68 86.52 32 86.52 30.96 86.52C29.9467 86.52 28.7067 86.52 27.24 86.52C25.7733 86.52 24.1867 86.52 22.48 86.52C20.7733 86.52 19.0667 86.52 17.36 86.52C15.68 86.52 14.0933 86.52 12.6 86.52C11.1333 86.52 9.88 86.52 8.84 86.52C7.82667 86.52 7.14667 86.52 6.8 86.52C6.21333 86.52 5.6 86.5333 4.96 86.56C4.32 86.56 3.72 86.5867 3.16 86.64V82.48ZM22.72 84.6C22.72 87.16 22.52 89.48 22.12 91.56C21.72 93.64 21.08 95.5067 20.2 97.16C19.72 98.0667 19.08 98.9867 18.28 99.92C17.48 100.827 16.56 101.693 15.52 102.52C14.5067 103.347 13.4133 104.053 12.24 104.64L8.56 101.92C10.0267 101.307 11.4267 100.467 12.76 99.4C14.12 98.3333 15.1867 97.1867 15.96 95.96C16.9733 94.3867 17.6267 92.6533 17.92 90.76C18.2133 88.84 18.3733 86.8 18.4 84.64L22.72 84.6ZM31.48 69.32C31.8267 69.7733 32.2 70.3333 32.6 71C33 71.6667 33.3867 72.3333 33.76 73C34.1333 73.6667 34.4533 74.2667 34.72 74.8L32.08 75.92C31.68 75.12 31.1867 74.1867 30.6 73.12C30.0133 72.0533 29.4533 71.1467 28.92 70.4L31.48 69.32ZM36 67.6C36.3733 68.1067 36.76 68.6933 37.16 69.36C37.5867 70.0267 37.9867 70.6933 38.36 71.36C38.76 72 39.08 72.56 39.32 73.04L36.72 74.2C36.2933 73.3467 35.7733 72.4 35.16 71.36C34.5733 70.32 34 69.4267 33.44 68.68L36 67.6ZM72.24 71.24C72.48 71.72 72.7333 72.2933 73 72.96C73.2933 73.6267 73.56 74.2933 73.8 74.96C74.0667 75.6 74.2933 76.1867 74.48 76.72L72.16 77.52C71.9733 76.9333 71.7467 76.32 71.48 75.68C71.24 75.0133 70.9867 74.36 70.72 73.72C70.48 73.0533 70.2267 72.4667 69.96 71.96L72.24 71.24ZM76.28 69.96C76.5467 70.4667 76.8133 71.0533 77.08 71.72C77.3733 72.36 77.6533 73.0133 77.92 73.68C78.1867 74.32 78.4 74.92 78.56 75.48L76.24 76.24C75.9467 75.36 75.6 74.4133 75.2 73.4C74.8 72.36 74.4 71.4533 74 70.68L76.28 69.96ZM68.6 84.6C68.6 87.1867 68.4133 89.5067 68.04 91.56C67.6933 93.5867 67.0933 95.4133 66.24 97.04C65.3867 98.64 64.2 100.08 62.68 101.36C61.16 102.613 59.2267 103.76 56.88 104.8L53.48 101.64C55.3733 100.947 57 100.173 58.36 99.32C59.7467 98.4667 60.8933 97.4133 61.8 96.16C62.7067 94.9067 63.3733 93.3733 63.8 91.56C64.2533 89.72 64.48 87.48 64.48 84.84V74.72C64.48 73.8933 64.4533 73.1867 64.4 72.6C64.3733 71.9867 64.3333 71.5333 64.28 71.24H68.8C68.7733 71.5333 68.7333 71.9867 68.68 72.6C68.6267 73.1867 68.6 73.8933 68.6 74.72V84.6ZM54.16 71.52C54.1333 71.7867 54.0933 72.2133 54.04 72.8C53.9867 73.36 53.96 74.0133 53.96 74.76V89.24C53.96 89.7733 53.9733 90.3067 54 90.84C54.0267 91.3733 54.04 91.84 54.04 92.24C54.0667 92.64 54.0933 92.9333 54.12 93.12H49.68C49.7067 92.9333 49.7333 92.64 49.76 92.24C49.7867 91.84 49.8133 91.3733 49.84 90.84C49.8667 90.3067 49.88 89.7733 49.88 89.24V74.72C49.88 74.24 49.8533 73.72 49.8 73.16C49.7733 72.6 49.7333 72.0533 49.68 71.52H54.16ZM41.8 79.04C41.9867 79.0667 42.2933 79.1067 42.72 79.16C43.1467 79.2133 43.64 79.2667 44.2 79.32C44.76 79.3467 45.3467 79.36 45.96 79.36H72.32C73.3067 79.36 74.12 79.3333 74.76 79.28C75.4267 79.2267 75.9467 79.1733 76.32 79.12V83.36C76.0267 83.3333 75.5333 83.3067 74.84 83.28C74.1467 83.2533 73.32 83.24 72.36 83.24H45.96C45.3467 83.24 44.76 83.2533 44.2 83.28C43.6667 83.28 43.1867 83.2933 42.76 83.32C42.36 83.3467 42.04 83.36 41.8 83.36V79.04ZM83.04 87.08C86.56 86.1467 89.7867 85.04 92.72 83.76C95.68 82.4533 98.2667 81.1067 100.48 79.72C101.893 78.8667 103.267 77.9067 104.6 76.84C105.96 75.7733 107.24 74.6667 108.44 73.52C109.64 72.3733 110.693 71.2667 111.6 70.2L114.96 73.4C113.787 74.6 112.52 75.7867 111.16 76.96C109.8 78.1333 108.36 79.2667 106.84 80.36C105.347 81.4267 103.813 82.44 102.24 83.4C100.773 84.3067 99.1067 85.2267 97.24 86.16C95.3733 87.0667 93.4 87.9467 91.32 88.8C89.24 89.6267 87.1333 90.3733 85 91.04L83.04 87.08ZM99.76 81.8L104.2 80.64V98.76C104.2 99.2933 104.2 99.88 104.2 100.52C104.227 101.133 104.253 101.707 104.28 102.24C104.333 102.773 104.4 103.187 104.48 103.48H99.52C99.5467 103.187 99.5867 102.773 99.64 102.24C99.6933 101.707 99.72 101.133 99.72 100.52C99.7467 99.88 99.76 99.2933 99.76 98.76V81.8ZM129.32 72.2C130.04 72.68 130.867 73.28 131.8 74C132.733 74.6933 133.68 75.44 134.64 76.24C135.627 77.04 136.56 77.8133 137.44 78.56C138.32 79.3067 139.027 79.9733 139.56 80.56L136.4 83.8C135.893 83.2667 135.227 82.6267 134.4 81.88C133.573 81.1067 132.68 80.32 131.72 79.52C130.787 78.6933 129.853 77.92 128.92 77.2C127.987 76.4533 127.147 75.8267 126.4 75.32L129.32 72.2ZM125.2 98.96C127.44 98.6133 129.507 98.16 131.4 97.6C133.293 97.0133 135.027 96.36 136.6 95.64C138.2 94.8933 139.64 94.1333 140.92 93.36C143.053 92.0533 145.013 90.5467 146.8 88.84C148.613 87.1333 150.2 85.3733 151.56 83.56C152.92 81.7467 154 79.9867 154.8 78.28L157.24 82.64C156.28 84.3733 155.093 86.1067 153.68 87.84C152.293 89.5733 150.72 91.24 148.96 92.84C147.2 94.4133 145.28 95.84 143.2 97.12C141.867 97.9467 140.4 98.7467 138.8 99.52C137.227 100.293 135.52 100.987 133.68 101.6C131.867 102.213 129.933 102.707 127.88 103.08L125.2 98.96ZM185.56 70.08C185.533 70.24 185.493 70.52 185.44 70.92C185.413 71.32 185.387 71.72 185.36 72.12C185.333 72.52 185.32 72.8133 185.32 73C185.293 73.5067 185.267 74.2133 185.24 75.12C185.24 76 185.24 76.9733 185.24 78.04C185.24 79.1067 185.24 80.1867 185.24 81.28C185.267 82.3467 185.28 83.36 185.28 84.32C185.307 85.2533 185.32 86.04 185.32 86.68L181.44 85.08C181.44 84.6533 181.44 84.0533 181.44 83.28C181.44 82.48 181.427 81.5867 181.4 80.6C181.4 79.5867 181.387 78.5867 181.36 77.6C181.36 76.6133 181.347 75.7067 181.32 74.88C181.32 74.0533 181.307 73.4267 181.28 73C181.227 72.36 181.16 71.76 181.08 71.2C181.027 70.64 180.987 70.2667 180.96 70.08H185.56ZM163.68 75.4C164.827 75.3733 166.107 75.3467 167.52 75.32C168.96 75.2933 170.48 75.2667 172.08 75.24C173.68 75.1867 175.267 75.1467 176.84 75.12C178.44 75.0667 179.96 75.04 181.4 75.04C182.84 75.0133 184.12 75 185.24 75C186.387 75 187.56 75 188.76 75C189.96 75 191.107 75 192.2 75C193.293 75 194.28 75 195.16 75C196.067 75 196.773 75 197.28 75L197.2 78.76C196.053 78.7067 194.493 78.6667 192.52 78.64C190.573 78.5867 188.12 78.56 185.16 78.56C183.4 78.56 181.587 78.5733 179.72 78.6C177.853 78.6267 175.973 78.68 174.08 78.76C172.213 78.8133 170.4 78.88 168.64 78.96C166.907 79.04 165.293 79.1333 163.8 79.24L163.68 75.4ZM184.96 87.08C184.96 89.0533 184.693 90.6933 184.16 92C183.653 93.28 182.92 94.2533 181.96 94.92C181 95.56 179.84 95.88 178.48 95.88C177.653 95.88 176.84 95.7333 176.04 95.44C175.267 95.1467 174.547 94.7067 173.88 94.12C173.24 93.5067 172.72 92.7733 172.32 91.92C171.947 91.04 171.76 90.04 171.76 88.92C171.76 87.5067 172.093 86.2667 172.76 85.2C173.453 84.1067 174.36 83.2533 175.48 82.64C176.627 82.0267 177.867 81.72 179.2 81.72C180.853 81.72 182.227 82.0933 183.32 82.84C184.44 83.5867 185.28 84.6 185.84 85.88C186.4 87.1333 186.68 88.56 186.68 90.16C186.68 91.4667 186.48 92.8267 186.08 94.24C185.68 95.6267 185.013 96.9733 184.08 98.28C183.147 99.5867 181.88 100.787 180.28 101.88C178.707 102.947 176.733 103.827 174.36 104.52L170.96 101.16C172.747 100.787 174.36 100.293 175.8 99.68C177.24 99.04 178.48 98.2667 179.52 97.36C180.56 96.4267 181.36 95.3333 181.92 94.08C182.507 92.8 182.8 91.32 182.8 89.64C182.8 88.04 182.44 86.88 181.72 86.16C181.027 85.44 180.173 85.08 179.16 85.08C178.547 85.08 177.96 85.2267 177.4 85.52C176.84 85.8133 176.387 86.24 176.04 86.8C175.693 87.36 175.52 88.04 175.52 88.84C175.52 89.96 175.88 90.84 176.6 91.48C177.347 92.0933 178.2 92.4 179.16 92.4C179.933 92.4 180.587 92.1867 181.12 91.76C181.68 91.3067 182.067 90.6133 182.28 89.68C182.493 88.72 182.44 87.5067 182.12 86.04L184.96 87.08ZM209.2 72.08C209.707 72.1333 210.24 72.1733 210.8 72.2C211.387 72.2267 211.92 72.24 212.4 72.24C212.8 72.24 213.44 72.24 214.32 72.24C215.227 72.2133 216.24 72.1867 217.36 72.16C218.507 72.1333 219.64 72.1067 220.76 72.08C221.88 72.0267 222.88 71.9733 223.76 71.92C224.667 71.8667 225.333 71.8267 225.76 71.8C226.48 71.7467 227.027 71.6933 227.4 71.64C227.8 71.5867 228.107 71.52 228.32 71.44L230.52 74.32C230.12 74.5867 229.707 74.8533 229.28 75.12C228.853 75.3867 228.427 75.6933 228 76.04C227.493 76.4133 226.827 76.9333 226 77.6C225.2 78.24 224.333 78.96 223.4 79.76C222.467 80.5333 221.547 81.2933 220.64 82.04C219.733 82.7867 218.92 83.4533 218.2 84.04C219 83.7733 219.8 83.6 220.6 83.52C221.4 83.4133 222.2 83.36 223 83.36C225.213 83.36 227.2 83.7867 228.96 84.64C230.72 85.4933 232.107 86.64 233.12 88.08C234.133 89.52 234.64 91.1867 234.64 93.08C234.64 95.1867 234.08 97.0667 232.96 98.72C231.867 100.373 230.267 101.667 228.16 102.6C226.08 103.533 223.547 104 220.56 104C218.72 104 217.107 103.747 215.72 103.24C214.333 102.733 213.253 102.027 212.48 101.12C211.733 100.187 211.36 99.12 211.36 97.92C211.36 96.9333 211.627 96.0133 212.16 95.16C212.72 94.28 213.493 93.5867 214.48 93.08C215.493 92.5467 216.653 92.28 217.96 92.28C219.773 92.28 221.28 92.6533 222.48 93.4C223.707 94.12 224.64 95.08 225.28 96.28C225.947 97.48 226.307 98.7867 226.36 100.2L222.72 100.72C222.64 99.12 222.173 97.8133 221.32 96.8C220.493 95.7867 219.373 95.28 217.96 95.28C217.107 95.28 216.4 95.5067 215.84 95.96C215.307 96.4133 215.04 96.9467 215.04 97.56C215.04 98.44 215.48 99.1333 216.36 99.64C217.267 100.147 218.427 100.4 219.84 100.4C222.107 100.4 224.04 100.12 225.64 99.56C227.24 98.9733 228.453 98.1333 229.28 97.04C230.107 95.92 230.52 94.5733 230.52 93C230.52 91.7467 230.147 90.6267 229.4 89.64C228.653 88.6533 227.627 87.8933 226.32 87.36C225.013 86.8 223.52 86.52 221.84 86.52C220.24 86.52 218.773 86.7067 217.44 87.08C216.133 87.4267 214.907 87.9467 213.76 88.64C212.613 89.3067 211.48 90.1467 210.36 91.16C209.267 92.1467 208.133 93.28 206.96 94.56L204.04 91.6C204.84 90.96 205.72 90.24 206.68 89.44C207.64 88.64 208.6 87.84 209.56 87.04C210.547 86.2133 211.467 85.44 212.32 84.72C213.2 83.9733 213.933 83.36 214.52 82.88C215.08 82.4267 215.76 81.88 216.56 81.24C217.36 80.5733 218.187 79.88 219.04 79.16C219.893 78.44 220.707 77.76 221.48 77.12C222.253 76.4533 222.893 75.8933 223.4 75.44C222.973 75.4667 222.387 75.4933 221.64 75.52C220.893 75.5467 220.067 75.5867 219.16 75.64C218.28 75.6667 217.387 75.7067 216.48 75.76C215.573 75.7867 214.747 75.8267 214 75.88C213.253 75.9067 212.68 75.9333 212.28 75.96C211.8 75.9867 211.293 76.0267 210.76 76.08C210.253 76.1067 209.773 76.1467 209.32 76.2L209.2 72.08ZM247.76 92.16C248.933 92.16 249.987 92.4533 250.92 93.04C251.853 93.6 252.6 94.3467 253.16 95.28C253.72 96.2133 254 97.2667 254 98.44C254 99.5867 253.72 100.64 253.16 101.6C252.6 102.533 251.853 103.28 250.92 103.84C249.987 104.4 248.933 104.68 247.76 104.68C246.613 104.68 245.56 104.4 244.6 103.84C243.667 103.28 242.907 102.533 242.32 101.6C241.76 100.64 241.48 99.5867 241.48 98.44C241.48 97.2667 241.76 96.2133 242.32 95.28C242.907 94.3467 243.667 93.6 244.6 93.04C245.56 92.4533 246.613 92.16 247.76 92.16ZM247.76 102.28C248.827 102.28 249.733 101.907 250.48 101.16C251.227 100.413 251.6 99.5067 251.6 98.44C251.6 97.72 251.427 97.08 251.08 96.52C250.76 95.9333 250.307 95.4667 249.72 95.12C249.133 94.7733 248.48 94.6 247.76 94.6C247.067 94.6 246.427 94.7733 245.84 95.12C245.253 95.4667 244.787 95.9333 244.44 96.52C244.093 97.08 243.92 97.72 243.92 98.44C243.92 99.1333 244.093 99.7867 244.44 100.4C244.787 100.987 245.253 101.453 245.84 101.8C246.427 102.12 247.067 102.28 247.76 102.28Z" fill="black"/>
</svg>
