<svg width="1700" height="2630" viewBox="0 0 1700 2630" fill="none" xmlns="http://www.w3.org/2000/svg">
<g clip-path="url(#clip0_565_68)">
<path d="M1524 252L1535.5 244.5L1546.74 248.397L1544.5 258.5L1524 252Z" fill="#2CE02C"/>
<path d="M1697 579.222L1696.35 597.911L1678.31 604.5L1684 585L1697 579.222Z" fill="#E0A12C"/>
<path opacity="0.97" d="M1620 639.444L1627.5 631.002L1646.65 644.145L1635.68 656.498L1620 639.444Z" fill="#E02C87"/>
<path opacity="0.85" d="M1474 1107.67L1468.67 1095.11L1481.22 1089.78L1482.5 1098.5L1474 1107.67Z" fill="#2CE02C"/>
<path opacity="0.96" d="M1605 1366.5L1597.42 1376.38L1595.5 1364L1601.51 1355.3L1605 1366.5Z" fill="#2CE02C"/>
<path opacity="0.98" d="M1540 1488.11L1551 1491L1555.5 1509.5L1546.23 1515.09L1533.5 1506L1540 1488.11Z" fill="#E0A12C"/>
<path opacity="0.77" d="M1485 1930L1479.58 1939.55L1468.5 1943L1464.78 1921.91L1485 1930Z" fill="#E02C87"/>
<path opacity="0.8" d="M1669 2256L1645.18 2241.2L1660.53 2226.38L1672.5 2226.38L1669 2256Z" fill="#E02C2C"/>
<path opacity="0.74" d="M1496 2347.78L1479.43 2351.3L1486 2339.5L1512.5 2331.5L1496 2347.78Z" fill="#E02C2C"/>
<path opacity="0.87" d="M1336.14 226L1326.79 242.194L1318 228L1326.79 217.499L1336.14 226Z" fill="#A72CE0"/>
<path opacity="0.83" d="M1250.14 391.222L1250.14 401.5L1245 405.383L1235.98 393.212L1250.14 391.222Z" fill="#E02C87"/>
<path opacity="0.87" d="M1401 728.5L1388.5 725.5L1392.28 706.52L1407.68 715.053L1401 728.5Z" fill="#382CE0"/>
<path opacity="0.95" d="M1546.5 1060.5L1554.5 1058L1567 1059.25L1567 1068L1554.5 1082L1546.5 1060.5Z" fill="#E02C2C"/>
<path opacity="0.87" d="M1398.14 1412.89L1405.5 1408.5L1416.05 1404.92L1416.05 1418.5L1398.14 1412.89Z" fill="#E02C2C"/>
<path opacity="0.92" d="M1498.17 1675.94L1479.5 1662L1481 1648L1500 1649.83L1498.17 1675.94Z" fill="#A72CE0"/>
<path d="M1296.14 1869.33L1294 1879.5L1278 1870.5L1274.63 1865.93L1287.09 1856.87L1296.14 1869.33Z" fill="#2CE02C"/>
<path opacity="0.85" d="M1328.5 2307L1343 2322L1321.43 2327.64L1320.25 2310.74L1328.5 2307Z" fill="#E0DA2C"/>
<path opacity="0.79" d="M1377.14 2523.78L1353.5 2529L1352 2518.5L1365.58 2506.63L1377.14 2523.78Z" fill="#E02C2C"/>
<path opacity="0.92" d="M1050.29 182L1040.14 198.232L1027 192.5L1040.14 185.5L1050.29 182Z" fill="#E02C2C"/>
<path opacity="0.78" d="M1140 274L1140 251.501L1156 250.324L1167 257.998L1158.5 269.498L1140 274Z" fill="#A72CE0"/>
<path opacity="0.77" d="M1404 429.861L1414.14 419L1425 429.861L1414.14 444.812L1404 442.499L1404 429.861Z" fill="#2CE02C"/>
<path opacity="0.97" d="M1430.5 915.002L1432.11 904.001L1439.5 909.001L1445 919.001L1434.5 922.001L1430.5 915.002Z" fill="#E0DA2C"/>
<path opacity="0.9" d="M1579.5 1816.5L1588.61 1808L1595 1830.34L1583.04 1830.34L1579.5 1816.5Z" fill="#E0DA2C"/>
<path opacity="0.93" d="M1404.94 1603L1418.5 1611L1411.12 1620.94L1400 1620.94L1404.94 1603Z" fill="#E02C2C"/>
<path opacity="0.73" d="M1429 2119.99L1416.81 2119.99L1415 2098.5L1432.2 2087L1442.5 2098.5L1429 2119.99Z" fill="#A72CE0"/>
<rect opacity="0.78" x="1074.29" y="2188.56" width="16.06" height="16.06" transform="rotate(-121 1074.29 2188.56)" fill="#E0A12C"/>
<path opacity="0.88" d="M1058 2605.5L1071.28 2602.61L1071.28 2629L1054.45 2625.77L1058 2605.5Z" fill="#E0DA2C"/>
<path opacity="0.7" d="M783.43 21L798.353 19.9564L799.002 33.0001L787.501 33.0001L783.43 21Z" fill="#E0A12C"/>
<path opacity="0.92" d="M889.999 488.001L879.999 489.999L877.352 475.832L893.17 475.003L889.999 488.001Z" fill="#382CE0"/>
<path opacity="0.96" d="M825.498 214.498L805.498 223L791.236 211.088L798.912 190L825.498 202.5L825.498 214.498Z" fill="#382CE0"/>
<path opacity="0.94" d="M1592.5 870.5L1592.5 882.498L1578 870.5L1577 858L1592.5 870.5Z" fill="#382CE0"/>
<path opacity="0.84" d="M1026 2403L1035.73 2392L1044 2404.5L1041 2421.5L1033.5 2427.5L1026 2403Z" fill="#A72CE0"/>
<path opacity="0.78" d="M1269.6 2164.5L1282 2162.5L1281 2174.4L1269.6 2187.52L1269.6 2164.5Z" fill="#E02C87"/>
<path opacity="0.89" d="M731.001 2273.5L743.501 2299.5L737.475 2303.14L723.001 2286L731.001 2273.5Z" fill="#E0DA2C"/>
<rect opacity="0.89" x="911.43" y="2278.56" width="18.04" height="18.04" transform="rotate(134 911.43 2278.56)" fill="#382CE0"/>
<path opacity="0.79" d="M871.43 2447.78L881.046 2460.09L877.501 2473L861.501 2466L869.001 2454.5L871.43 2447.78Z" fill="#2CE02C"/>
<path opacity="0.79" d="M614.57 127L631.519 124.316L631.518 134L624.498 144L614.57 127Z" fill="#E02C2C"/>
<path opacity="0.85" d="M665.998 382.998L652.469 398.671L642.019 380.57L652.469 378L665.998 382.998Z" fill="#E02C2C"/>
<rect opacity="0.92" x="577" y="535.662" width="13.86" height="13.86" transform="rotate(156 577 535.662)" fill="#E0DA2C"/>
<path opacity="0.78" d="M328.626 820.667L312.499 824.998L310.704 796.001L323.999 803.501L328.626 820.667Z" fill="#E02C87"/>
<path opacity="0.82" d="M255 1118.5L238.806 1101.35L249.648 1084L272 1108.5L255 1118.5Z" fill="#2CE02C"/>
<path opacity="0.91" d="M496 1621.5L513 1629.65L504.347 1653.43L489.226 1659L496 1621.5Z" fill="#2CE02C"/>
<path d="M458.328 1967L477.501 1990.5L467.911 2002.76L450.001 1983L458.328 1967Z" fill="#E0DA2C"/>
<path opacity="0.77" d="M578.501 2154.5L569 2154.5L559.636 2137.97L584.398 2131.79L578.501 2154.5Z" fill="#E02C2C"/>
<path opacity="0.98" d="M639.569 2542.78L626.998 2524.5L634.59 2507.35L652.499 2535L639.569 2542.78Z" fill="#E0A12C"/>
<path opacity="0.93" d="M464.733 167.5L454.498 178.001L447.834 162.081L464.733 159.101L464.733 167.5Z" fill="#A72CE0"/>
<path opacity="0.71" d="M391.499 444.624L374.499 461.5L362.891 444.624L385.602 434.512L391.499 444.624Z" fill="#A72CE0"/>
<path opacity="0.79" d="M407.713 673.444L388.999 661.498L393.906 643.838L416.499 654.5L407.713 673.444Z" fill="#A72CE0"/>
<path opacity="0.9" d="M265.499 971.001L252.78 989.019L240.499 979.499L252.78 966.501L265.499 960.998L265.499 971.001Z" fill="#382CE0"/>
<path opacity="0.71" d="M305.5 1216.22L307.5 1208L316.5 1209.5L320.5 1211.5L311.787 1224.36L305.5 1216.22Z" fill="#E0A12C"/>
<path opacity="0.91" d="M315.715 1498.11L332.435 1501.97L322.501 1522.5L311.855 1514.83L315.715 1498.11Z" fill="#E0A12C"/>
<path opacity="0.91" d="M357.715 1833.33L371.359 1838.3L366.393 1851.94L354.001 1854.5L357.715 1833.33Z" fill="#E0A12C"/>
<path opacity="0.85" d="M286.715 2128.56L277.31 2112.9L292.964 2103.5L295.501 2123L286.715 2128.56Z" fill="#E0DA2C"/>
<path opacity="0.8" d="M409.715 2378.78L414.501 2414.99L402.017 2414.99L396.501 2397.5L409.715 2378.78Z" fill="#382CE0"/>
<path opacity="0.8" d="M16.8555 251L30.2212 256.673L33.498 275L11.1821 264.366L16.8555 251Z" fill="#E02C87"/>
<path opacity="0.82" d="M149.999 406.002L138.483 420.499L129.499 416.001L117.189 395.302L138.484 391.93L149.999 406.002Z" fill="#E02C2C"/>
<path opacity="0.85" d="M191.858 772.444L181.501 792.001L162.001 788.001L160.501 777.999L171.501 767L191.858 772.444Z" fill="#A72CE0"/>
<path opacity="0.76" d="M76.8564 968.667L88.499 995.999L74.9989 995.999L65.999 991.502L60.499 973.002L76.8564 968.667Z" fill="#E0DA2C"/>
<path opacity="0.88" d="M48.8562 1359.89L48.8564 1373L26.8285 1381.92L37.4988 1359.89L48.8562 1359.89Z" fill="#382CE0"/>
<path opacity="0.86" d="M85.8577 1478.11L66.001 1478.11L74.4729 1446.83L103.001 1468L85.8577 1478.11Z" fill="#E02C87"/>
<path opacity="0.72" d="M36.8561 1830.33L43.4986 1836L37.947 1851.15L26.9931 1841.29L36.8561 1830.33Z" fill="#E02C87"/>
<path opacity="0.79" d="M80.858 2130.56L77.6431 2153.43L64.501 2148L61.501 2135L70.5006 2119L80.858 2130.56Z" fill="#A72CE0"/>
<path opacity="0.85" d="M146.858 2466.77L138.5 2454.33L152.5 2448L157.501 2448L159.501 2464.5L146.858 2466.77Z" fill="#382CE0"/>
</g>
<defs>
<clipPath id="clip0_565_68">
<rect width="2630" height="1700" fill="white" transform="translate(1700) rotate(90)"/>
</clipPath>
</defs>
</svg>
