<svg width="1700" height="2630" viewBox="0 0 1700 2630" fill="none" xmlns="http://www.w3.org/2000/svg">
<g clip-path="url(#clip0_565_2)">
<path opacity="0.99" d="M1515.5 50.4989L1506.51 68.5011L1491 58.5L1506.51 36.8759L1515.5 50.4989Z" fill="#E0DA2C"/>
<path opacity="0.83" d="M1623 332.224L1609.83 335.501L1609.83 314.101L1625.48 316.579L1623 332.224Z" fill="#E0DA2C"/>
<path opacity="0.85" d="M1678 735.444L1688 735.446L1693.36 755.819L1681 749.499L1678 735.444Z" fill="#E0A12C"/>
<path opacity="0.94" d="M1502 1096.67L1509 1118.5L1499.34 1127.04L1493.5 1109.5L1502 1096.67Z" fill="#A72CE0"/>
<path opacity="0.82" d="M1550.5 1448.5L1566.66 1457L1566.66 1467.55L1544 1467.55L1550.5 1448.5Z" fill="#A72CE0"/>
<path opacity="0.96" d="M1463 1589.11L1472.79 1604.78L1457.12 1614.58L1460 1604.78L1463 1589.11Z" fill="#2CE02C"/>
<path opacity="0.83" d="M1545.95 1847.5L1545.95 1832.03L1569 1847.5L1562.3 1856.28L1545.95 1847.5Z" fill="#E0DA2C"/>
<path opacity="0.97" d="M1614 2287.56L1626.56 2293.41L1630.5 2300.12L1614 2300.12L1614 2287.56Z" fill="#382CE0"/>
<path opacity="0.78" d="M1509 2474.43L1498.66 2466.03L1521.75 2461.5L1521.75 2474.43L1509 2474.43Z" fill="#A72CE0"/>
<path opacity="0.74" d="M1351.14 154L1336.5 147L1328.92 131.781L1354.5 136.5L1351.14 154Z" fill="#E02C87"/>
<path opacity="0.72" d="M1361.14 531.221L1343.34 531.843L1342.71 514.033L1354 523.498L1361.14 531.221Z" fill="#382CE0"/>
<path opacity="0.99" d="M1521.5 762.002L1530 757.208L1530 764.5L1518.5 771.015L1521.5 762.002Z" fill="#E02C87"/>
<path opacity="0.75" d="M1360.14 1006.67L1371.5 1006.67L1350.5 1021L1342.81 1007.88L1360.14 1006.67Z" fill="#2CE02C"/>
<path opacity="0.77" d="M1390.14 1193.89L1383 1184.09L1397.5 1172.5L1399.94 1184.09L1390.14 1193.89Z" fill="#2CE02C"/>
<path opacity="0.74" d="M1333.14 1563.11L1328.5 1568L1312.41 1557.56L1325.55 1549.97L1333.14 1563.11Z" fill="#382CE0"/>
<path opacity="0.98" d="M1272.14 1877.33L1263.43 1865L1263.43 1852.04L1281.5 1868L1272.14 1877.33Z" fill="#E02C2C"/>
<path opacity="0.81" d="M1399.5 2322.81L1420.43 2322.81L1412.18 2337.1L1393.5 2343.5L1399.5 2322.81Z" fill="#E0A12C"/>
<path opacity="0.78" d="M1263 2442L1272.4 2450.13L1259.14 2467L1253.79 2458.04L1263 2442Z" fill="#E02C87"/>
<path opacity="0.78" d="M1171.61 89.5012L1151.14 92.67L1155 80.8484L1171.61 80.8484L1171.61 89.5012Z" fill="#2CE02C"/>
<path opacity="0.87" d="M1032 266L1050.5 265.999L1047 278.469L1028.53 279.114L1032 266Z" fill="#2CE02C"/>
<rect opacity="0.75" x="1209.71" y="576.135" width="20.68" height="20.68" transform="rotate(-140 1209.71 576.135)" fill="#A72CE0"/>
<path opacity="0.8" d="M1384.39 661L1398 672.5L1390.45 692.152L1374.5 680L1384.39 661Z" fill="#2CE02C"/>
<path opacity="0.96" d="M1341.45 1346.55L1330 1332L1323.5 1319.5L1332.99 1315L1346 1318L1341.45 1346.55Z" fill="#E0DA2C"/>
<path opacity="0.82" d="M1362.57 1879.59L1348.5 1868.5L1364.85 1847L1370 1860.5L1362.57 1879.59Z" fill="#E02C87"/>
<path opacity="0.9" d="M1272 2008L1272 2018.79L1263.5 2024L1251.82 2017.38L1272 2008Z" fill="#E02C87"/>
<path opacity="0.71" d="M1064.29 2120.56L1057 2132.5L1034 2114L1054 2114L1064.29 2120.56Z" fill="#A72CE0"/>
<path d="M1038.29 2557.78L1028.87 2546L1028.87 2530.42L1054.5 2538.5L1052 2548.81L1038.29 2557.78Z" fill="#E0A12C"/>
<path opacity="0.76" d="M824.43 19.0005L838.963 7.23146L850.732 21.7641L838.963 28.5005L824.43 19.0005Z" fill="#E0A12C"/>
<path opacity="0.94" d="M889.361 268L873.775 256.639L889.361 253.499L895.001 251.499L898 263.586L889.361 268Z" fill="#A72CE0"/>
<path opacity="0.87" d="M760.999 370.994L779.999 370.994L773.999 382.542L746.463 382.542L760.999 370.994Z" fill="#E0DA2C"/>
<path opacity="0.88" d="M1514.5 139.999L1509 132.001L1511.82 122L1524 129.908L1522.5 138.5L1514.5 139.999Z" fill="#2CE02C"/>
<path opacity="0.91" d="M220.5 403.5L236.129 393.833L247 409.5L233 428L224.234 426.516L220.5 403.5Z" fill="#382CE0"/>
<path opacity="0.95" d="M1055 1868.5L1055 1880.29L1038.5 1883L1031.25 1865.45L1055 1868.5Z" fill="#E0DA2C"/>
<path opacity="0.89" d="M953.501 2207L957.001 2221L941.766 2224.19L941.766 2209L953.5 2195L953.501 2207Z" fill="#E0DA2C"/>
<path d="M761.693 2227L753.502 2227L748.369 2220.5L761.693 2216.5L761.693 2227Z" fill="#E0A12C"/>
<path opacity="0.8" d="M780.59 2358L776.002 2373.5L762.527 2369L769.501 2361.5L780.59 2358Z" fill="#E02C87"/>
<path opacity="0.9" d="M602 53.1607L617.73 25.7971L626.5 36.0002L616.775 53.1592L602 53.1607Z" fill="#382CE0"/>
<path opacity="0.82" d="M649.002 298.007L658.377 281.203L676.398 298.007L671.502 315L652.002 315L649.002 298.007Z" fill="#382CE0"/>
<path opacity="0.82" d="M34.0005 2474L36.9792 2445L54.9998 2461.8L51.5009 2478.5L34.0005 2474Z" fill="#382CE0"/>
<path opacity="0.84" d="M453.999 679.5L463.999 676.689L463.999 688.755L448.553 688.757L453.999 679.5Z" fill="#A72CE0"/>
<path opacity="0.87" d="M242.331 661.335L232.498 642.5L242.331 623.999L259.498 649.998L242.331 661.335Z" fill="#E02C87"/>
<path opacity="0.78" d="M261.001 1455.63L250.001 1463.5L234.501 1457.5L251.501 1438L264.501 1439.49L261.001 1455.63Z" fill="#E0A12C"/>
<path opacity="0.96" d="M440 2036.22L429.78 2032.5L429.779 2022L440 2025.5L440 2036.22Z" fill="#E02C87"/>
<path opacity="0.93" d="M647.001 2040L664.162 2028L664.164 2045L657 2051L647.001 2040Z" fill="#E02C87"/>
<path opacity="0.83" d="M528.501 2127.95L524.968 2104.9L540.501 2108.5L540.501 2120L528.501 2127.95Z" fill="#E02C87"/>
<path opacity="0.85" d="M511.572 2512.78L510.501 2496L522.41 2481.3L533.001 2491.62L529 2504.5L511.572 2512.78Z" fill="#A72CE0"/>
<path opacity="0.84" d="M295.999 69.5946L305.499 81.6407L280.265 81.6394L286.669 69.596L295.999 69.5946Z" fill="#2CE02C"/>
<path opacity="0.9" d="M479.5 487.499L470 491.999L457.5 493.999L461.5 467.999L477 463.499L479.5 487.499Z" fill="#E02C2C"/>
<path opacity="0.79" d="M403.706 627.999L403.706 607.656L411.494 619.649L407.5 628L403.706 627.999Z" fill="#E0DA2C"/>
<path opacity="0.78" d="M307.223 1016.16L306.843 994.381L328.62 994.001L322 1014.5L307.223 1016.16Z" fill="#E02C87"/>
<path opacity="0.81" d="M197.699 1160L219.499 1170.5L212.499 1179L197.699 1174.5L197.699 1160Z" fill="#A72CE0"/>
<path opacity="0.99" d="M317.609 1625L321.5 1645L306.862 1654.53L310.5 1640.5L317.609 1625Z" fill="#E0DA2C"/>
<path opacity="0.99" d="M342.501 1866L329.366 1859.9L339.795 1846.56L342.501 1855L342.501 1866Z" fill="#E02C2C"/>
<path opacity="0.81" d="M484.715 2313.56L495.001 2327.77L487.824 2338.88L479.501 2332L484.715 2313.56Z" fill="#E02C87"/>
<path opacity="0.94" d="M422.715 2401.78L414.5 2411.5L400.122 2411.5L400.122 2393.11L422.715 2401.78Z" fill="#2CE02C"/>
<path opacity="0.97" d="M33.5 263.002L41.3237 268.883L45.4403 282.348L36.4995 290.5L33.5 263.002Z" fill="#E0DA2C"/>
<path opacity="0.88" d="M54.8555 460.222L39.6102 475.467L27.498 444.977L36.498 447.5L54.8555 460.222Z" fill="#E02C2C"/>
<path opacity="0.95" d="M120.855 739.445L114.498 726L127.716 715.519L136.248 730.912L120.855 739.445Z" fill="#E0A12C"/>
<path opacity="0.76" d="M96.8556 1107.66L86.998 1099L83.6329 1088.06L99.9985 1094L96.8556 1107.66Z" fill="#2CE02C"/>
<path opacity="0.86" d="M110.501 1203.5L119.001 1199L123.727 1205.88L121.501 1216.5L110.501 1219.5L110.501 1203.5Z" fill="#A72CE0"/>
<path opacity="0.91" d="M89.999 1726.5L80.998 1736.11L70.0903 1710.63L94.7153 1711.49L89.999 1726.5Z" fill="#E02C87"/>
<path opacity="0.79" d="M206.857 1915.33L204.5 1906.5L206.857 1898L215 1896.37L214 1912L206.857 1915.33Z" fill="#E0DA2C"/>
<path opacity="0.79" d="M210.499 2257L201.998 2264.5L191.475 2247.48L208.206 2244.83L210.499 2257Z" fill="#E02C2C"/>
<path opacity="0.9" d="M214.001 2389.5L230.502 2391.5L232.502 2403.5L222.502 2416.5L205.485 2411.04L214.001 2389.5Z" fill="#E0DA2C"/>
</g>
<defs>
<clipPath id="clip0_565_2">
<rect width="2630" height="1700" fill="white" transform="translate(1700) rotate(90)"/>
</clipPath>
</defs>
</svg>
