<svg width="1700" height="2630" viewBox="0 0 1700 2630" fill="none" xmlns="http://www.w3.org/2000/svg">
<g clip-path="url(#clip0_565_132)">
<path opacity="0.83" d="M1546 192L1532.5 185.5L1527.41 181.267L1542.07 177.338L1546 192Z" fill="#E02C87"/>
<path opacity="0.89" d="M1649 547.222L1625.56 556.999L1629.5 539.499L1640.42 532.361L1649 547.222Z" fill="#E0A12C"/>
<path opacity="0.76" d="M1574 690.444L1557 685.5L1546.48 671.169L1584.5 671.173L1574 690.444Z" fill="#E0DA2C"/>
<path opacity="0.84" d="M1560 955.667L1570.79 965.048L1570.79 973.499L1550.62 966.459L1560 955.667Z" fill="#E02C87"/>
<path opacity="0.83" d="M1607 1395.5L1602.38 1385.11L1618.16 1386.49L1621 1398L1607 1395.5Z" fill="#E02C2C"/>
<path opacity="0.97" d="M1631.5 1570.5L1638 1591.5L1628 1603L1612.5 1589L1618 1567.5L1631.5 1570.5Z" fill="#382CE0"/>
<path opacity="0.79" d="M1613 1869.33L1604.5 1865L1609 1851.5L1617.5 1844.5L1626.52 1858.77L1613 1869.33Z" fill="#E02C87"/>
<path opacity="0.8" d="M1571 2239.55L1555.5 2247L1545.22 2226.42L1555.5 2233L1571 2239.55Z" fill="#E02C87"/>
<path opacity="0.88" d="M1664.5 2476L1679.5 2482.95L1670.33 2492.44L1661.5 2489L1664.5 2476Z" fill="#A72CE0"/>
<path opacity="0.84" d="M1385 47.998L1371.24 26.3038L1394.93 20.3961L1415 40.0002L1398.5 52.0003L1385 47.998Z" fill="#2CE02C"/>
<path opacity="0.97" d="M1397 516.453L1401.81 503.778L1422 538.5L1406.58 533.895L1397 516.453Z" fill="#E02C87"/>
<path opacity="0.85" d="M1227.14 606.442L1220.84 620.999L1211 619L1211 601.5L1223 590.498L1227.14 606.442Z" fill="#2CE02C"/>
<path opacity="0.85" d="M1473 978.998L1467 991.687L1449.31 993.859L1459 979L1473 978.998Z" fill="#E02C2C"/>
<path opacity="0.85" d="M1497 1173.86L1494.27 1179.59L1481.41 1173.86L1489 1161L1497 1173.86Z" fill="#A72CE0"/>
<path opacity="0.87" d="M1463 1938L1475 1935.58L1469.42 1956.41L1454.18 1954.5L1463 1938Z" fill="#E0DA2C"/>
<path opacity="0.8" d="M1259 1849L1254.5 1865.5L1245 1867L1230.5 1849L1255.83 1840.3L1259 1849Z" fill="#A72CE0"/>
<path opacity="0.93" d="M1253.5 2334L1239.45 2336.88L1239.45 2317.5L1246 2306L1264 2307.5L1253.5 2334Z" fill="#2CE02C"/>
<path opacity="0.95" d="M1378.5 2394L1388.77 2370.04L1405 2376L1397.5 2400.5L1378.5 2394Z" fill="#2CE02C"/>
<path opacity="0.97" d="M1108.33 279.954L1088.56 287.001L1088.56 260.176L1108.33 266.222L1108.33 279.954Z" fill="#382CE0"/>
<path opacity="0.94" d="M1222 333.146L1214.41 344.5L1201 340L1214.41 320L1222 333.146Z" fill="#E0DA2C"/>
<path opacity="0.87" d="M926.091 407L944.499 418.999L926.091 448.193L913.806 431.284L926.091 407Z" fill="#E02C2C"/>
<path opacity="0.76" d="M1431.5 868.366L1455 868.366L1453.63 887.898L1441.5 889.5L1431.5 868.366Z" fill="#E0A12C"/>
<path opacity="0.72" d="M1469.23 1452.05L1458.5 1446.5L1455.5 1435H1467.5L1472 1440L1469.23 1452.05Z" fill="#E02C2C"/>
<path opacity="0.98" d="M961.92 2071.96L938.034 2066.89L954.498 2044.5L971.998 2056L961.92 2071.96Z" fill="#A72CE0"/>
<path opacity="0.8" d="M1007 2365.59L1011 2379.5L1000.5 2382.5L994.388 2376L994.388 2361L1007 2365.59Z" fill="#E0A12C"/>
<path opacity="0.75" d="M1189.5 2076L1203.67 2066.84L1206.38 2082.23L1195.5 2086.5L1189.5 2076Z" fill="#E02C2C"/>
<path opacity="0.97" d="M1180.29 2507.78L1180.28 2498L1204.5 2481.5L1199.11 2501.66L1180.29 2507.78Z" fill="#E02C2C"/>
<path opacity="0.85" d="M896.001 247.999L900.452 224.79L918.5 247.999L903 261.499L896.001 247.999Z" fill="#E0A12C"/>
<path opacity="0.92" d="M714.001 467.923L723.078 459L726.501 467.923L719.719 480.204L714.001 467.923Z" fill="#E02C87"/>
<path opacity="0.86" d="M353.002 903.001L355.747 877.002L371.502 879.001L369.502 898.501L353.002 903.001Z" fill="#382CE0"/>
<path opacity="0.93" d="M543.499 620.499L535.93 607.501L547.498 597L560.999 605.004L555.996 625.069L543.499 620.499Z" fill="#E0A12C"/>
<path opacity="0.75" d="M1474.84 1246L1501 1246.91L1494 1272.5L1482.5 1271L1474.84 1246Z" fill="#E0A12C"/>
<path opacity="0.75" d="M309 1594.5L305 1573.5L316.819 1564L322 1583.34L309 1594.5Z" fill="#382CE0"/>
<path opacity="0.93" d="M667.265 2416L688.999 2426.13L678.864 2447.87L667.265 2452L653.999 2432.5L667.265 2416Z" fill="#E0DA2C"/>
<path opacity="0.98" d="M733.43 2184.56L743.001 2188L749.289 2204.14L735.501 2202L733.43 2184.56Z" fill="#A72CE0"/>
<path opacity="0.78" d="M958.43 2550.78L945.322 2568.17L935.002 2557.5L941.036 2537.67L958.43 2550.78Z" fill="#E02C87"/>
<path opacity="0.91" d="M535.501 144.998L541.085 131.266L555.821 142.779L551.501 152.501L542.501 151.501L535.501 144.998Z" fill="#E0DA2C"/>
<path d="M523.57 471.222L520.514 488.555L505.443 490.332L508.499 473L523.57 471.222Z" fill="#2CE02C"/>
<path opacity="0.8" d="M288.438 1261.43L304.502 1261.43L318.002 1282.13L300.002 1285L288.438 1261.43Z" fill="#E02C2C"/>
<path opacity="0.79" d="M154.253 1201.76L138.002 1178L154.253 1164.5L166.002 1182L166.002 1194L154.253 1201.76Z" fill="#E0DA2C"/>
<path opacity="0.89" d="M507.57 1301.89L523.074 1303.79L516.998 1317.39L505.667 1317.39L507.57 1301.89Z" fill="#E0DA2C"/>
<path opacity="0.97" d="M498.002 1956.5L509.002 1977.15L498.002 1977.15L481.79 1962.06L498.002 1956.5Z" fill="#E0A12C"/>
<path opacity="0.74" d="M425.001 2155L453.001 2149.5L459.002 2172.69L441.311 2184.62L425.001 2155Z" fill="#382CE0"/>
<path opacity="0.99" d="M581.872 2231.5L561.47 2241.66L548.5 2222.5L567.5 2212.5L581.872 2219L581.872 2231.5Z" fill="#E02C87"/>
<path opacity="0.97" d="M494.002 2473L506.453 2448.37L519.863 2468.25L510.501 2485.5L494.002 2473Z" fill="#E02C87"/>
<path opacity="0.92" d="M447.715 0.999834L449.001 9.50049L431.164 18.7483L430.566 1.59871L447.715 0.999834Z" fill="#382CE0"/>
<path opacity="0.92" d="M319.498 351.624L314.115 328.126L343.998 338.5L336.809 351.623L319.498 351.624Z" fill="#E0A12C"/>
<path opacity="0.72" d="M439.501 630.998L433.501 636.499L420.602 628.633L436.064 616.982L439.501 630.998Z" fill="#2CE02C"/>
<path opacity="0.91" d="M248.999 980.502L258.999 999.285L248.999 1000.5L235.499 993L239.898 983.817L248.999 980.502Z" fill="#E0DA2C"/>
<path opacity="0.89" d="M421.5 1409.61L415 1431.56L399 1424L395 1405.5L399 1391L421.5 1409.61Z" fill="#E0A12C"/>
<path opacity="0.95" d="M262.999 1737L246.499 1732L257.072 1707.15L269.375 1721.81L262.999 1737Z" fill="#E02C2C"/>
<path opacity="0.76" d="M370.5 1783.5L362.5 1765L377.093 1749.16L381.989 1767.44L370.5 1783.5Z" fill="#E0DA2C"/>
<path opacity="0.76" d="M310.493 2068L285.999 2058.5L310.493 2042.25L322.754 2053.29L310.493 2068Z" fill="#E02C87"/>
<path d="M252.999 2590.3L274.234 2567.05L282.958 2581.57L268.438 2590.3L252.999 2590.3Z" fill="#E02C87"/>
<path opacity="0.88" d="M64.8573 123L52.5005 122.999L64.8573 101.842L75.4363 112.421L64.8573 123Z" fill="#E0A12C"/>
<path opacity="0.82" d="M174.859 515.225L149.898 523.82L141.302 498.856L159.501 498.855L174.859 515.225Z" fill="#E0DA2C"/>
<path opacity="0.79" d="M126.855 647.444L126.564 664.162L113.998 660.499L110.138 647.153L126.855 647.444Z" fill="#E0A12C"/>
<path opacity="0.74" d="M97.8564 881.666L108.999 891.002L92.999 908.999L80.6993 887.241L97.8564 881.666Z" fill="#382CE0"/>
<path opacity="0.72" d="M173.81 1414.5L173.81 1427.03L160.665 1421.99L165.711 1408.84L173.81 1414.5Z" fill="#E0A12C"/>
<path opacity="0.89" d="M189.857 1658.11L203.499 1661.5L206.202 1685.31L189.857 1673L189.857 1658.11Z" fill="#E0DA2C"/>
<path opacity="0.85" d="M179.93 1933L193.999 1933L174.999 1952.5L164.053 1940.07L179.93 1933Z" fill="#E0A12C"/>
<path opacity="0.85" d="M162.855 2286.56L162.856 2302.82L137.806 2302.82L129.998 2286.56L162.855 2286.56Z" fill="#E0DA2C"/>
<path opacity="0.96" d="M193.855 2512.78L216.998 2536.5L205.228 2542.4L181.998 2557.5L193.855 2512.78Z" fill="#382CE0"/>
</g>
<defs>
<clipPath id="clip0_565_132">
<rect width="2630" height="1700" fill="white" transform="translate(1700) rotate(90)"/>
</clipPath>
</defs>
</svg>
