<svg width="162" height="121" viewBox="0 0 162 121" fill="none" xmlns="http://www.w3.org/2000/svg">
<rect width="162" height="114" rx="10" fill="black"/>
<mask id="mask0_493_970" style="mask-type:alpha" maskUnits="userSpaceOnUse" x="0" y="0" width="162" height="121">
<rect width="162" height="121" fill="black"/>
</mask>
<g mask="url(#mask0_493_970)">
<path d="M17.752 100C13.5707 100 9.85867 99.104 6.616 97.312C3.37333 95.52 0.856001 93.1307 -0.936 90.144C-2.728 87.072 -3.624 83.744 -3.624 80.16C-3.624 77.1733 -2.89867 74.3147 -1.448 71.584C0.00266727 68.768 2.05067 66.3787 4.696 64.416L30.296 46.496C31.7467 45.472 32.856 44.4053 33.624 43.296C34.392 42.1013 34.776 40.8213 34.776 39.456C34.776 38.0907 34.4347 36.9813 33.752 36.128C33.1547 35.1893 32.344 34.464 31.32 33.952C30.296 33.44 29.1013 33.184 27.736 33.184H-0.424V10.4H29.784C35.5867 10.4 40.792 11.7227 45.4 14.368C50.008 16.928 53.6347 20.384 56.28 24.736C59.0107 29.088 60.376 33.952 60.376 39.328C60.376 44.6187 59.224 49.3547 56.92 53.536C54.7013 57.632 51.0747 61.216 46.04 64.288L28.76 75.296C28.504 75.3813 28.2907 75.552 28.12 75.808C28.0347 75.9787 27.992 76.1493 27.992 76.32C27.992 76.6613 28.12 76.9173 28.376 77.088C28.632 77.1733 29.016 77.216 29.528 77.216H61.4V100H17.752Z" fill="white"/>
<path d="M65.752 100C61.5707 100 57.8587 99.104 54.616 97.312C51.3733 95.52 48.856 93.1307 47.064 90.144C45.272 87.072 44.376 83.744 44.376 80.16C44.376 77.1733 45.1013 74.3147 46.552 71.584C48.0027 68.768 50.0507 66.3787 52.696 64.416L78.296 46.496C79.7467 45.472 80.856 44.4053 81.624 43.296C82.392 42.1013 82.776 40.8213 82.776 39.456C82.776 38.0907 82.4347 36.9813 81.752 36.128C81.1547 35.1893 80.344 34.464 79.32 33.952C78.296 33.44 77.1013 33.184 75.736 33.184H47.576V10.4H77.784C83.5867 10.4 88.792 11.7227 93.4 14.368C98.008 16.928 101.635 20.384 104.28 24.736C107.011 29.088 108.376 33.952 108.376 39.328C108.376 44.6187 107.224 49.3547 104.92 53.536C102.701 57.632 99.0747 61.216 94.04 64.288L76.76 75.296C76.504 75.3813 76.2907 75.552 76.12 75.808C76.0347 75.9787 75.992 76.1493 75.992 76.32C75.992 76.6613 76.12 76.9173 76.376 77.088C76.632 77.1733 77.016 77.216 77.528 77.216H109.4V100H65.752Z" fill="#E02C87"/>
<path d="M112.856 100C106.115 100 100.611 98.08 96.344 94.24C92.1627 90.3147 90.072 85.2373 90.072 79.008C90.072 76.2773 90.6693 73.5893 91.864 70.944C93.0587 68.2133 95.1067 65.6107 98.008 63.136L131.416 33.312C131.587 33.1413 131.715 32.9707 131.8 32.8C131.885 32.6293 131.928 32.5013 131.928 32.416C131.928 32.2453 131.885 32.1173 131.8 32.032C131.715 31.9467 131.587 31.8613 131.416 31.776C131.245 31.6907 130.989 31.648 130.648 31.648H91.992V10.4H139.736C144.259 10.4 148.227 11.296 151.64 13.088C155.053 14.88 157.699 17.3547 159.576 20.512C161.539 23.584 162.52 27.2107 162.52 31.392C162.52 34.1227 161.923 36.8533 160.728 39.584C159.533 42.2293 157.613 44.704 154.968 47.008L121.176 76.96C121.091 77.0453 120.963 77.1733 120.792 77.344C120.707 77.4293 120.621 77.5147 120.536 77.6C120.536 77.6853 120.536 77.8133 120.536 77.984C120.536 78.1547 120.579 78.3253 120.664 78.496C120.835 78.5813 121.048 78.6667 121.304 78.752C121.56 78.8373 121.859 78.88 122.2 78.88H163.16V100H112.856Z" fill="white"/>
</g>
</svg>
