<svg width="1440" height="1024" viewBox="0 0 1440 1024" fill="none" xmlns="http://www.w3.org/2000/svg">
<g clip-path="url(#clip0_483_2)">
<path opacity="0.9" d="M14.4991 42.1463L-9.12213 59.2675L-16.3896 42.1464L0.73145 34.879L14.4991 42.1463Z" fill="#E02C87"/>
<path opacity="0.74" d="M202 59L207.315 59.0002L223.673 70.0431L217 78.5L202 59Z" fill="#E0DA2C"/>
<path opacity="0.83" d="M503.969 103L505.5 90.5L518.209 85.4152L521.5 95.5L503.969 103Z" fill="#E02C2C"/>
<path opacity="0.89" d="M675.969 38L683.5 50.5L693.068 64.3305L671.353 59.7149L675.969 38Z" fill="#E02C87"/>
<path opacity="0.84" d="M726.969 54.0005L708 62L702.263 57.0326L708 49.5L716.133 46.5L726.969 54.0005Z" fill="#2CE02C"/>
<path opacity="0.75" d="M1042 41.0002L1051.5 38.0001L1055 45L1045.34 54.3903L1042 41.0002Z" fill="#2CE02C"/>
<rect opacity="0.93" x="1102" y="15" width="21.4" height="21.4" transform="rotate(-142 1102 15)" fill="#A72CE0"/>
<path opacity="0.8" d="M1417 113L1430.45 109.896L1433.55 123.342L1417 123.342L1417 113Z" fill="#E02C2C"/>
<path opacity="0.77" d="M41.1426 252L47.8381 263.143L36.6949 269.838L39 260.5L41.1426 252Z" fill="#A72CE0"/>
<path opacity="0.83" d="M112.5 44.0002L120.979 57.9207L109.059 62.9804L104.5 46.9998L112.5 44.0002Z" fill="#A72CE0"/>
<path opacity="0.81" d="M446.5 174L429 181.463L440 159.698L453.172 159.698L446.5 174Z" fill="#E02C87"/>
<path opacity="0.74" d="M588.354 181L599.386 174.592L599.386 185L588.354 190.347L588.354 181Z" fill="#E0DA2C"/>
<path opacity="0.95" d="M1300.62 0L1315.31 5L1315.31 23.5067L1296.21 19.0977L1300.62 0Z" fill="#E0A12C"/>
<path opacity="0.89" d="M1084.55 171.214L1089 162L1096.5 155L1112.72 160.96L1108.5 169.5L1084.55 171.214Z" fill="#2CE02C"/>
<path opacity="0.92" d="M1245.55 226.214L1231 238.175L1214.39 238.175L1221.5 216.5L1245.55 226.214Z" fill="#E0A12C"/>
<path opacity="0.74" d="M1416 284.667L1423.94 274.125L1423.94 284.667L1426.54 292.611L1416 284.667Z" fill="#E0A12C"/>
<path opacity="0.99" d="M10.4987 396L3.24646 385.092L17.4894 371.337L26.9999 373L29.9999 379L10.4987 396Z" fill="#E0A12C"/>
<path opacity="0.76" d="M141.318 175.328L146.501 181.5L146.501 192L128.187 184.868L141.318 175.328Z" fill="#E0A12C"/>
<path opacity="0.92" d="M41.6391 925L57.4983 928L61.0111 936.64L49.3709 956.013L41.6391 946.5L41.6391 925Z" fill="#382CE0"/>
<path opacity="0.7" d="M553 186.5L545 180.991L561.629 172.5L571.999 184.5L561.629 187.5L553 186.5Z" fill="#E0DA2C"/>
<path opacity="0.76" d="M1292.62 168.667L1280 183L1271.9 195.19L1269 171.567L1292.62 168.667Z" fill="#E0A12C"/>
<rect opacity="0.78" x="1050.55" y="283.881" width="14.8" height="14.8" transform="rotate(6 1050.55 283.881)" fill="#E0DA2C"/>
<path opacity="0.76" d="M1289.91 391.366L1285.54 411.907L1265 407.541L1279 384.5L1289.91 391.366Z" fill="#382CE0"/>
<path opacity="0.84" d="M1326 477.333L1331.68 482L1331.68 494.818L1322 494.818L1326 477.333Z" fill="#A72CE0"/>
<path opacity="0.81" d="M24.5 675L29.8226 685.587L16.2367 694.41L7.5 675L24.5 675Z" fill="#E02C2C"/>
<path opacity="0.75" d="M232.762 690.988L219.998 684.762L229 673L238.987 678.225L232.762 690.988Z" fill="#382CE0"/>
<path opacity="0.81" d="M489 673L494.501 664.5L509.5 663L514.705 669.869L500.836 680.705L489 673Z" fill="#2CE02C"/>
<path opacity="0.85" d="M219.641 947.667L228.668 941L240.647 950.619L228.668 959.646L219.641 947.667Z" fill="#2CE02C"/>
<path opacity="0.78" d="M1346 886.675L1352.5 876L1371.06 866.383L1368.68 889.058L1346 886.675Z" fill="#E02C87"/>
<path opacity="0.86" d="M1388 910.676L1382.68 899.257L1388 899.256L1399.42 905.351L1388 910.676Z" fill="#E0DA2C"/>
<path opacity="0.7" d="M1166 505.033L1166 499L1174 489.535L1185.84 489.535L1183.67 507.202L1166 505.033Z" fill="#E02C2C"/>
<path opacity="0.88" d="M1373 635L1381.92 624.736L1392.19 633.658L1381.92 639L1373 635Z" fill="#E02C2C"/>
<path opacity="0.75" d="M153 783.667L172 783.667L170 797.574L158.619 797.574L153 783.667Z" fill="#E0A12C"/>
<path opacity="0.71" d="M270 792.972L265.082 780.956L275.5 779L280.461 792.972L270 792.972Z" fill="#E02C2C"/>
<path opacity="0.71" d="M374.773 808.502L379.2 831.276L360.5 825L351.999 812.929L374.773 808.502Z" fill="#E02C87"/>
<path opacity="0.97" d="M600.574 967L603.058 977.5L603.057 990.629L590.001 980.056L600.574 967Z" fill="#E0A12C"/>
<path opacity="0.9" d="M824.133 892.265L802.5 864.5L805.5 857.5L824.133 862L837.5 873L824.133 892.265Z" fill="#E0A12C"/>
<path opacity="0.76" d="M933.891 730L930 736.081L920.082 755.972L914.001 736.081L933.891 730Z" fill="#382CE0"/>
<path opacity="0.97" d="M1227 704.667L1216.33 691.949L1232 686.5L1238.5 691.949L1227 704.667Z" fill="#A72CE0"/>
<path opacity="0.81" d="M1414 733L1426.77 737.3L1419.14 747.072L1409.36 739.438L1414 733Z" fill="#A72CE0"/>
<path opacity="0.9" d="M132 853.333L143.849 861.5L140 872.565L124.618 872.565L132 853.333Z" fill="#E0A12C"/>
<rect opacity="0.81" x="265" y="1022.33" width="18.8" height="18.8" transform="rotate(78 265 1022.33)" fill="#2CE02C"/>
<path opacity="0.99" d="M428 967.333L411.5 956L393 936L411.5 936L429.13 945.763L428 967.333Z" fill="#E02C2C"/>
<path opacity="0.73" d="M682 884.333L662.102 889.665L656.77 869.766L671 864L682 884.333Z" fill="#E02C87"/>
<rect opacity="0.87" x="898" y="1018.33" width="21.2" height="21.2" transform="rotate(81 898 1018.33)" fill="#E0DA2C"/>
<rect opacity="0.94" x="1064" y="931.333" width="17.2" height="17.2" transform="rotate(18 1064 931.333)" fill="#E02C87"/>
<path opacity="0.96" d="M1241 920.333L1218 925.642L1225 904L1234.5 889L1241 920.333Z" fill="#E02C87"/>
<rect opacity="0.97" x="1290" y="1017.33" width="13.6" height="13.6" transform="rotate(111 1290 1017.33)" fill="#E0A12C"/>
</g>
<defs>
<clipPath id="clip0_483_2">
<rect width="1440" height="1024" fill="white"/>
</clipPath>
</defs>
</svg>
